<svg width="32" height="32" viewBox="0 0 32 32" fill="none" xmlns="http://www.w3.org/2000/svg">
<path d="M13.3333 24C15.6999 23.9995 17.9984 23.2073 19.8626 21.7494L25.724 27.6107L27.6093 25.7254L21.748 19.864C23.2066 17.9996 23.9994 15.7006 24 13.3334C24 7.45202 19.2146 2.66669 13.3333 2.66669C7.45196 2.66669 2.66663 7.45202 2.66663 13.3334C2.66663 19.2147 7.45196 24 13.3333 24ZM13.3333 5.33335C17.7453 5.33335 21.3333 8.92135 21.3333 13.3334C21.3333 17.7454 17.7453 21.3334 13.3333 21.3334C8.92129 21.3334 5.33329 17.7454 5.33329 13.3334C5.33329 8.92135 8.92129 5.33335 13.3333 5.33335Z" fill="black"/>
</svg>
