<svg width="738" height="417" viewBox="0 0 738 417" fill="none" xmlns="http://www.w3.org/2000/svg">
<path fill-rule="evenodd" clip-rule="evenodd" d="M86.9872 0H649.845C659.41 0 667.164 7.75385 667.164 17.3187V393.608C667.164 403.173 659.41 410.927 649.845 410.927H86.9872C77.4223 410.927 69.6685 403.173 69.6685 393.608V17.3187C69.6685 7.75385 77.4223 0 86.9872 0Z" fill="#DEDEDE"/>
<path fill-rule="evenodd" clip-rule="evenodd" d="M86.9874 1.57443H649.845C658.541 1.57443 665.59 8.62338 665.59 17.3187V393.608C665.59 402.303 658.541 409.352 649.845 409.352H86.9874C78.2921 409.352 71.2432 402.303 71.2432 393.608V17.3187C71.2432 8.62338 78.2921 1.57443 86.9874 1.57443Z" fill="white"/>
<path d="M0.000488281 401.874C0.000488281 400.135 1.41028 398.725 3.14934 398.725H734.471C736.21 398.725 737.62 400.135 737.62 401.874V410.533H0.000488281V401.874Z" fill="#DEDEDE"/>
<path fill-rule="evenodd" clip-rule="evenodd" d="M1.57422 401.874C1.57422 401.004 2.27911 400.299 3.14865 400.299H734.47C735.34 400.299 736.045 401.004 736.045 401.874V408.958H1.57422V401.874Z" fill="white"/>
<path fill-rule="evenodd" clip-rule="evenodd" d="M0 410.533H737.619L734.494 412.2C728.793 415.24 722.432 416.831 715.971 416.831H21.6484C15.1877 416.831 8.82631 415.24 3.1257 412.2L0 410.533Z" fill="#DEDEDE"/>
<path fill-rule="evenodd" clip-rule="evenodd" d="M2.36182 410.533H735.258L731.663 412.074C726.763 414.173 721.488 415.256 716.158 415.256H21.4619C16.1314 415.256 10.8565 414.173 5.95696 412.074L2.36182 410.533Z" fill="white"/>
<path d="M316.066 398.725H421.947V399.118C421.947 403.466 418.422 406.99 414.075 406.99H323.939C319.591 406.99 316.066 403.466 316.066 399.118V398.725Z" fill="#DEDEDE"/>
<path d="M275.655 206.846H267.8L266.036 211.74H263.487L270.646 192.991H272.809L279.982 211.74H277.445L275.655 206.846ZM268.547 204.812H274.921L271.728 196.043L268.547 204.812ZM282.506 211.74V192.991H287.798C289.429 192.991 290.871 193.351 292.125 194.073C293.378 194.794 294.344 195.82 295.022 197.15C295.709 198.481 296.056 200.009 296.065 201.734V202.932C296.065 204.7 295.721 206.25 295.035 207.58C294.356 208.911 293.382 209.933 292.112 210.645C290.85 211.358 289.377 211.722 287.695 211.74H282.506ZM284.978 195.025V209.718H287.579C289.485 209.718 290.966 209.126 292.021 207.941C293.086 206.756 293.618 205.069 293.618 202.88V201.786C293.618 199.657 293.116 198.004 292.112 196.828C291.116 195.644 289.699 195.043 287.862 195.025H284.978ZM299.812 211.74V192.991H305.104C306.735 192.991 308.178 193.351 309.431 194.073C310.684 194.794 311.65 195.82 312.328 197.15C313.015 198.481 313.363 200.009 313.371 201.734V202.932C313.371 204.7 313.028 206.25 312.341 207.58C311.663 208.911 310.689 209.933 309.418 210.645C308.156 211.358 306.684 211.722 305.001 211.74H299.812ZM302.284 195.025V209.718H304.885C306.791 209.718 308.272 209.126 309.328 207.941C310.392 206.756 310.925 205.069 310.925 202.88V201.786C310.925 199.657 310.422 198.004 309.418 196.828C308.422 195.644 307.006 195.043 305.169 195.025H302.284ZM326.312 211.74H323.84V192.991H326.312V211.74ZM334.038 192.991L340.168 208.289L346.297 192.991H349.503V211.74H347.031V204.438L347.263 196.558L341.108 211.74H339.215L333.073 196.596L333.317 204.438V211.74H330.845V192.991H334.038ZM364.453 206.846H356.599L354.834 211.74H352.285L359.444 192.991H361.608L368.78 211.74H366.243L364.453 206.846ZM357.345 204.812H363.719L360.526 196.043L357.345 204.812ZM384.992 209.28C384.357 210.19 383.468 210.873 382.326 211.327C381.193 211.774 379.871 211.997 378.36 211.997C376.832 211.997 375.476 211.641 374.291 210.928C373.107 210.207 372.188 209.186 371.536 207.864C370.892 206.542 370.561 205.009 370.544 203.267V201.631C370.544 198.807 371.201 196.618 372.514 195.064C373.836 193.51 375.691 192.733 378.077 192.733C380.034 192.733 381.61 193.236 382.803 194.24C383.996 195.236 384.726 196.652 384.992 198.489H382.52C382.056 196.008 380.579 194.768 378.09 194.768C376.433 194.768 375.175 195.352 374.317 196.519C373.467 197.678 373.038 199.361 373.029 201.567V203.099C373.029 205.202 373.51 206.876 374.472 208.121C375.433 209.357 376.734 209.975 378.373 209.975C379.3 209.975 380.112 209.872 380.807 209.666C381.502 209.46 382.077 209.113 382.532 208.623V204.413H378.193V202.404H384.992V209.28ZM399.723 203.073H391.598V209.718H401.036V211.74H389.125V192.991H400.908V195.025H391.598V201.052H399.723V203.073ZM425.064 211.74H422.579V203.073H413.128V211.74H410.655V192.991H413.128V201.052H422.579V192.991H425.064V211.74ZM440.053 203.073H431.928V209.718H441.366V211.74H429.455V192.991H441.238V195.025H431.928V201.052H440.053V203.073ZM451.32 204.155H446.916V211.74H444.431V192.991H450.638C452.75 192.991 454.372 193.472 455.505 194.433C456.647 195.395 457.218 196.794 457.218 198.631C457.218 199.798 456.9 200.816 456.265 201.683C455.638 202.55 454.763 203.198 453.638 203.627L458.042 211.585V211.74H455.389L451.32 204.155ZM446.916 202.133H450.715C451.943 202.133 452.917 201.816 453.638 201.181C454.368 200.545 454.733 199.695 454.733 198.631C454.733 197.472 454.385 196.584 453.69 195.965C453.003 195.347 452.007 195.034 450.702 195.025H446.916V202.133ZM471.292 203.073H463.167V209.718H472.606V211.74H460.695V192.991H472.477V195.025H463.167V201.052H471.292V203.073Z" fill="black"/>
</svg>
