<svg width="32" height="32" viewBox="0 0 32 32" fill="none" xmlns="http://www.w3.org/2000/svg">
<path d="M16 0C12.8355 0 9.74207 0.938383 7.11088 2.69649C4.4797 4.45459 2.42894 6.95345 1.21793 9.87706C0.0069325 12.8007 -0.309921 16.0177 0.307443 19.1214C0.924806 22.2251 2.44866 25.0761 4.6863 27.3137C6.92394 29.5513 9.77487 31.0752 12.8786 31.6926C15.9823 32.3099 19.1993 31.9931 22.1229 30.7821C25.0466 29.5711 27.5454 27.5203 29.3035 24.8891C31.0616 22.2579 32 19.1645 32 16C32 11.7565 30.3143 7.68687 27.3137 4.68629C24.3131 1.68571 20.2435 0 16 0ZM26.45 10.63L13.31 23.76L5.55001 16C5.28479 15.7348 5.13579 15.3751 5.13579 15C5.13579 14.6249 5.28479 14.2652 5.55001 14C5.81522 13.7348 6.17493 13.5858 6.55001 13.5858C6.92508 13.5858 7.28479 13.7348 7.55001 14L13.33 19.78L24.47 8.65C24.6013 8.51868 24.7572 8.41451 24.9288 8.34344C25.1004 8.27237 25.2843 8.23579 25.47 8.23579C25.6557 8.23579 25.8396 8.27237 26.0112 8.34344C26.1828 8.41451 26.3387 8.51868 26.47 8.65C26.6013 8.78132 26.7055 8.93722 26.7766 9.1088C26.8476 9.28038 26.8842 9.46428 26.8842 9.65C26.8842 9.83572 26.8476 10.0196 26.7766 10.1912C26.7055 10.3628 26.6013 10.5187 26.47 10.65L26.45 10.63Z" fill="#08B02D"/>
</svg>
