<svg width="68" height="64" viewBox="0 0 68 64" fill="none" xmlns="http://www.w3.org/2000/svg">
<path fill-rule="evenodd" clip-rule="evenodd" d="M36.0204 48.376C30.2524 48.376 24.3924 44.952 20.9724 40.42C4.56436 40.42 4.06836 63.86 4.06836 63.86H67.9684C67.9684 63.86 69.2564 40.316 50.8044 40.316C47.3884 44.904 41.7884 48.376 36.0204 48.376Z" fill="#0A459F"/>
<path fill-rule="evenodd" clip-rule="evenodd" d="M49.7638 20.276C49.7638 27.02 43.6078 39.916 36.0078 39.916C28.4198 39.916 22.2598 27.016 22.2598 20.276C22.2598 13.536 28.4158 8.06403 36.0078 8.06403C43.6078 8.06803 49.7638 13.54 49.7638 20.276Z" fill="#0A459F"/>
<path fill-rule="evenodd" clip-rule="evenodd" d="M55.9007 14.456C55.9007 13.192 54.1407 12.172 51.9567 12.164V9.56001C51.9567 9.17201 52.1047 0.0880127 36.0567 0.0880127C20.0167 0.0880127 20.1647 9.17201 20.1647 9.56001V12.256C20.1247 12.256 20.0927 12.244 20.0567 12.244C17.8847 12.244 16.1367 13.248 16.1367 14.492V25.508C16.1367 26.744 17.8887 27.752 20.0567 27.752C22.2247 27.752 23.9847 26.744 23.9847 25.508V14.492C23.9847 14.32 23.8767 14.164 23.8127 14.004V11C23.8127 10.724 22.6607 3.86801 36.0567 3.86801C49.4567 3.86801 48.0647 10.724 48.0647 11V14.164C48.0407 14.264 47.9647 14.352 47.9647 14.456V25.724C47.9647 26.992 49.7367 28.02 51.9327 28.02C51.9807 28.02 52.0167 28.004 52.0647 28.004V32.12H48.1287V36H55.9407L55.9007 14.456Z" fill="#0A459F"/>
</svg>
