<svg width="64" height="64" viewBox="0 0 64 64" fill="none" xmlns="http://www.w3.org/2000/svg">
<g clip-path="url(#clip0)">
<path d="M50.6669 50.6667H10.6668V8H50.6669V50.6667ZM30.6668 61.3333C29.606 61.3333 28.5886 60.9119 27.8384 60.1618C27.0883 59.4116 26.6668 58.3942 26.6668 57.3333C26.6668 56.2725 27.0883 55.2551 27.8384 54.5049C28.5886 53.7548 29.606 53.3333 30.6668 53.3333C31.7277 53.3333 32.7451 53.7548 33.4953 54.5049C34.2454 55.2551 34.6668 56.2725 34.6668 57.3333C34.6668 58.3942 34.2454 59.4116 33.4953 60.1618C32.7451 60.9119 31.7277 61.3333 30.6668 61.3333ZM49.3335 0H12.0002C10.2321 0 8.53636 0.702379 7.28612 1.95262C6.03588 3.20286 5.3335 4.89856 5.3335 6.66667V57.3333C5.3335 58.2088 5.50593 59.0757 5.84097 59.8846C6.176 60.6934 6.66706 61.4283 7.28612 62.0474C7.90518 62.6664 8.6401 63.1575 9.44894 63.4925C10.2578 63.8276 11.1247 64 12.0002 64H49.3335C50.209 64 51.0759 63.8276 51.8848 63.4925C52.6936 63.1575 53.4285 62.6664 54.0476 62.0474C54.6666 61.4283 55.1577 60.6934 55.4927 59.8846C55.8278 59.0757 56.0002 58.2088 56.0002 57.3333V6.66667C56.0002 4.89856 55.2978 3.20286 54.0476 1.95262C52.7973 0.702379 51.1016 0 49.3335 0V0Z" fill="#0A459F"/>
</g>
<defs>
<clipPath id="clip0">
<rect width="64" height="64" fill="white"/>
</clipPath>
</defs>
</svg>
