<svg width="879" height="323" viewBox="0 0 879 323" fill="none" xmlns="http://www.w3.org/2000/svg">
<g filter="url(#filter0_d)">
<rect x="10" y="6" width="923.995" height="302.171" rx="16.2323" fill="white"/>
<path d="M56.3595 45.6385L50.4259 64.5179H50.366L44.4624 45.6385H40.0572L47.7888 68.7134H52.7933L60.5249 45.6385H56.3595ZM64.6461 50.1935C66.0246 50.1935 66.9237 49.3245 66.9237 48.0359C66.9237 46.7473 66.0246 45.8782 64.6461 45.8782C63.2676 45.8782 62.3386 46.7473 62.3386 48.0359C62.3386 49.3245 63.2676 50.1935 64.6461 50.1935ZM62.6983 68.7134H66.654V53.0704H62.6983V68.7134ZM76.9438 69.0131C81.2291 69.0131 84.076 67.0052 84.076 63.9486C84.076 60.4723 80.6597 59.7232 77.8728 59.2437C75.835 58.8841 74.0369 58.5245 74.0369 57.146C74.0369 56.0072 75.2057 55.258 76.9438 55.258C78.7118 55.258 79.9105 56.2769 79.9705 57.8052H83.6864C83.5366 54.7785 80.8695 52.7707 76.9438 52.7707C72.9281 52.7707 70.261 54.6287 70.261 57.4756C70.261 60.8619 73.4676 61.5512 76.2246 62.0007C78.3522 62.3303 80.3001 62.7199 80.3001 64.3681C80.3001 65.6567 78.9516 66.4958 76.9438 66.4958C74.906 66.4958 73.5275 65.417 73.4676 63.8287H69.7816C69.9314 66.9153 72.7783 69.0131 76.9438 69.0131ZM89.258 50.1935C90.6365 50.1935 91.5355 49.3245 91.5355 48.0359C91.5355 46.7473 90.6365 45.8782 89.258 45.8782C87.8795 45.8782 86.9505 46.7473 86.9505 48.0359C86.9505 49.3245 87.8795 50.1935 89.258 50.1935ZM87.3101 68.7134H91.2658V53.0704H87.3101V68.7134ZM105.242 55.8574V53.0704H100.417V48.5453H96.641V53.0704H94.0039V55.8574H96.4612V64.1583C96.4612 67.0652 98.5889 69.0131 101.795 69.0131C102.934 69.0131 104.313 68.7433 105.242 68.3238V65.5368C104.672 65.8365 103.773 66.0163 103.054 66.0163C101.466 66.0163 100.417 65.1173 100.417 63.8287V55.8574H105.242ZM114.956 69.0131C119.841 69.0131 123.108 65.7766 123.108 60.8919C123.108 56.0072 119.841 52.7707 114.956 52.7707C110.072 52.7707 106.835 56.0072 106.835 60.8919C106.835 65.7766 110.072 69.0131 114.956 69.0131ZM114.956 65.8665C112.499 65.8665 110.881 63.8587 110.881 60.8919C110.881 57.8951 112.499 55.8873 114.956 55.8873C117.414 55.8873 119.062 57.8951 119.062 60.8919C119.062 63.8587 117.414 65.8665 114.956 65.8665ZM135.339 52.7707C133.151 52.7707 131.173 54.1792 130.364 56.3069H130.304V53.0704H126.348V68.7134H130.304V61.4013C130.304 58.3147 132.012 56.2769 134.559 56.2769C135.518 56.2769 136.597 56.4567 137.286 56.7264V53.0704C136.777 52.8906 135.998 52.7707 135.339 52.7707ZM145.629 69.0131C149.914 69.0131 152.761 67.0052 152.761 63.9486C152.761 60.4723 149.345 59.7232 146.558 59.2437C144.52 58.8841 142.722 58.5245 142.722 57.146C142.722 56.0072 143.891 55.258 145.629 55.258C147.397 55.258 148.596 56.2769 148.655 57.8052H152.371C152.222 54.7785 149.555 52.7707 145.629 52.7707C141.613 52.7707 138.946 54.6287 138.946 57.4756C138.946 60.8619 142.153 61.5512 144.91 62.0007C147.037 62.3303 148.985 62.7199 148.985 64.3681C148.985 65.6567 147.637 66.4958 145.629 66.4958C143.591 66.4958 142.213 65.417 142.153 63.8287H138.467C138.616 66.9153 141.463 69.0131 145.629 69.0131Z" fill="#0A459F"/>
<path d="M428.035 55.2658C428.834 55.4157 429.489 55.7603 429.998 56.2997C430.507 56.8391 430.762 57.5234 430.762 58.3525C430.762 59.3714 430.413 60.1755 429.713 60.7649C429.014 61.3542 428.165 61.6489 427.166 61.6489C426.367 61.6489 425.658 61.4691 425.038 61.1095C424.419 60.7399 423.98 60.2105 423.72 59.5212L424.889 58.832C425.198 59.8009 425.957 60.2854 427.166 60.2854C427.815 60.2854 428.345 60.1156 428.754 59.7759C429.164 59.4363 429.369 58.9618 429.369 58.3525C429.369 57.7431 429.164 57.2687 428.754 56.929C428.345 56.5794 427.815 56.4046 427.166 56.4046H426.806L426.252 55.5505L428.679 52.2691H424.02V50.9655H430.313V52.1942L428.035 55.2658ZM433.905 50.9655H435.104V61.4541H433.725V52.4639L431.493 53.1232L431.148 51.9245L433.905 50.9655ZM437.628 62.9525H436.849L442.842 49.4671H443.621L437.628 62.9525ZM451.897 60.1655C451.188 61.1544 450.194 61.6489 448.915 61.6489C447.637 61.6489 446.643 61.1544 445.934 60.1655C445.224 59.1766 444.87 57.858 444.87 56.2098C444.87 54.5616 445.224 53.243 445.934 52.2541C446.643 51.2652 447.637 50.7707 448.915 50.7707C450.194 50.7707 451.188 51.2652 451.897 52.2541C452.606 53.243 452.961 54.5616 452.961 56.2098C452.961 57.858 452.606 59.1766 451.897 60.1655ZM446.953 59.2215C447.412 59.9308 448.066 60.2854 448.915 60.2854C449.764 60.2854 450.419 59.9308 450.878 59.2215C451.348 58.5123 451.582 57.5084 451.582 56.2098C451.582 54.9112 451.348 53.9073 450.878 53.1981C450.419 52.4789 449.764 52.1193 448.915 52.1193C448.066 52.1193 447.412 52.4739 446.953 53.1831C446.493 53.8923 446.263 54.9012 446.263 56.2098C446.263 57.5084 446.493 58.5123 446.953 59.2215ZM456.308 50.9655H457.506V61.4541H456.128V52.4639L453.895 53.1232L453.551 51.9245L456.308 50.9655ZM460.03 62.9525H459.251L465.245 49.4671H466.024L460.03 62.9525ZM467.137 61.4541V60.3153L470.838 56.5394C471.827 55.5505 472.322 54.7014 472.322 53.9922C472.322 53.4029 472.142 52.9434 471.782 52.6137C471.423 52.2841 470.983 52.1193 470.464 52.1193C469.475 52.1193 468.756 52.5887 468.306 53.5277L467.137 52.8385C467.467 52.1592 467.921 51.6448 468.501 51.2952C469.09 50.9455 469.739 50.7707 470.449 50.7707C471.328 50.7707 472.092 51.0604 472.741 51.6398C473.391 52.2192 473.715 52.9983 473.715 53.9772C473.715 55.0361 473.091 56.1898 471.842 57.4385L469.16 60.1056H473.91V61.4541H467.137ZM482.055 60.1655C481.346 61.1544 480.352 61.6489 479.073 61.6489C477.794 61.6489 476.8 61.1544 476.091 60.1655C475.382 59.1766 475.027 57.858 475.027 56.2098C475.027 54.5616 475.382 53.243 476.091 52.2541C476.8 51.2652 477.794 50.7707 479.073 50.7707C480.352 50.7707 481.346 51.2652 482.055 52.2541C482.764 53.243 483.119 54.5616 483.119 56.2098C483.119 57.858 482.764 59.1766 482.055 60.1655ZM477.11 59.2215C477.57 59.9308 478.224 60.2854 479.073 60.2854C479.922 60.2854 480.576 59.9308 481.036 59.2215C481.505 58.5123 481.74 57.5084 481.74 56.2098C481.74 54.9112 481.505 53.9073 481.036 53.1981C480.576 52.4789 479.922 52.1193 479.073 52.1193C478.224 52.1193 477.57 52.4739 477.11 53.1831C476.651 53.8923 476.421 54.9012 476.421 56.2098C476.421 57.5084 476.651 58.5123 477.11 59.2215ZM484.14 61.4541V60.3153L487.841 56.5394C488.83 55.5505 489.325 54.7014 489.325 53.9922C489.325 53.4029 489.145 52.9434 488.785 52.6137C488.426 52.2841 487.986 52.1193 487.467 52.1193C486.478 52.1193 485.759 52.5887 485.309 53.5277L484.14 52.8385C484.47 52.1592 484.924 51.6448 485.504 51.2952C486.093 50.9455 486.742 50.7707 487.452 50.7707C488.331 50.7707 489.095 51.0604 489.744 51.6398C490.394 52.2192 490.718 52.9983 490.718 53.9772C490.718 55.0361 490.094 56.1898 488.845 57.4385L486.163 60.1056H490.913V61.4541H484.14ZM499.058 60.1655C498.349 61.1544 497.355 61.6489 496.076 61.6489C494.797 61.6489 493.803 61.1544 493.094 60.1655C492.385 59.1766 492.03 57.858 492.03 56.2098C492.03 54.5616 492.385 53.243 493.094 52.2541C493.803 51.2652 494.797 50.7707 496.076 50.7707C497.355 50.7707 498.349 51.2652 499.058 52.2541C499.767 53.243 500.122 54.5616 500.122 56.2098C500.122 57.858 499.767 59.1766 499.058 60.1655ZM494.113 59.2215C494.573 59.9308 495.227 60.2854 496.076 60.2854C496.925 60.2854 497.579 59.9308 498.039 59.2215C498.508 58.5123 498.743 57.5084 498.743 56.2098C498.743 54.9112 498.508 53.9073 498.039 53.1981C497.579 52.4789 496.925 52.1193 496.076 52.1193C495.227 52.1193 494.573 52.4739 494.113 53.1831C493.654 53.8923 493.424 54.9012 493.424 56.2098C493.424 57.5084 493.654 58.5123 494.113 59.2215ZM505.664 57.4834V56.2248H513.231V57.4834H505.664ZM525.806 60.1655C525.097 61.1544 524.103 61.6489 522.824 61.6489C521.546 61.6489 520.552 61.1544 519.842 60.1655C519.133 59.1766 518.779 57.858 518.779 56.2098C518.779 54.5616 519.133 53.243 519.842 52.2541C520.552 51.2652 521.546 50.7707 522.824 50.7707C524.103 50.7707 525.097 51.2652 525.806 52.2541C526.515 53.243 526.87 54.5616 526.87 56.2098C526.87 57.858 526.515 59.1766 525.806 60.1655ZM520.861 59.2215C521.321 59.9308 521.975 60.2854 522.824 60.2854C523.673 60.2854 524.328 59.9308 524.787 59.2215C525.257 58.5123 525.491 57.5084 525.491 56.2098C525.491 54.9112 525.257 53.9073 524.787 53.1981C524.328 52.4789 523.673 52.1193 522.824 52.1193C521.975 52.1193 521.321 52.4739 520.861 53.1831C520.402 53.8923 520.172 54.9012 520.172 56.2098C520.172 57.5084 520.402 58.5123 520.861 59.2215ZM531.573 54.5916C532.622 54.5916 533.486 54.9212 534.165 55.5805C534.844 56.2298 535.184 57.0739 535.184 58.1127C535.184 59.1516 534.844 60.0007 534.165 60.66C533.486 61.3192 532.622 61.6489 531.573 61.6489C530.514 61.6489 529.645 61.3192 528.966 60.66C528.297 60.0007 527.962 59.1516 527.962 58.1127C527.962 57.3036 528.172 56.6044 528.591 56.015L531.963 50.9655H533.551L531.078 54.6215C531.298 54.6016 531.463 54.5916 531.573 54.5916ZM529.955 59.716C530.374 60.1156 530.914 60.3153 531.573 60.3153C532.232 60.3153 532.767 60.1156 533.176 59.716C533.596 59.3064 533.806 58.772 533.806 58.1127C533.806 57.4535 533.596 56.924 533.176 56.5245C532.767 56.1249 532.232 55.9251 531.573 55.9251C530.904 55.9251 530.364 56.1249 529.955 56.5245C529.545 56.924 529.34 57.4535 529.34 58.1127C529.34 58.772 529.545 59.3064 529.955 59.716ZM536.953 62.9525H536.174L542.168 49.4671H542.947L536.953 62.9525ZM551.223 60.1655C550.513 61.1544 549.52 61.6489 548.241 61.6489C546.962 61.6489 545.968 61.1544 545.259 60.1655C544.55 59.1766 544.195 57.858 544.195 56.2098C544.195 54.5616 544.55 53.243 545.259 52.2541C545.968 51.2652 546.962 50.7707 548.241 50.7707C549.52 50.7707 550.513 51.2652 551.223 52.2541C551.932 53.243 552.287 54.5616 552.287 56.2098C552.287 57.858 551.932 59.1766 551.223 60.1655ZM546.278 59.2215C546.738 59.9308 547.392 60.2854 548.241 60.2854C549.09 60.2854 549.744 59.9308 550.204 59.2215C550.673 58.5123 550.908 57.5084 550.908 56.2098C550.908 54.9112 550.673 53.9073 550.204 53.1981C549.744 52.4789 549.09 52.1193 548.241 52.1193C547.392 52.1193 546.738 52.4739 546.278 53.1831C545.819 53.8923 545.589 54.9012 545.589 56.2098C545.589 57.5084 545.819 58.5123 546.278 59.2215ZM553.308 61.4541V60.3153L557.009 56.5394C557.998 55.5505 558.493 54.7014 558.493 53.9922C558.493 53.4029 558.313 52.9434 557.953 52.6137C557.594 52.2841 557.154 52.1193 556.635 52.1193C555.646 52.1193 554.926 52.5887 554.477 53.5277L553.308 52.8385C553.638 52.1592 554.092 51.6448 554.672 51.2952C555.261 50.9455 555.91 50.7707 556.62 50.7707C557.499 50.7707 558.263 51.0604 558.912 51.6398C559.561 52.2192 559.886 52.9983 559.886 53.9772C559.886 55.0361 559.262 56.1898 558.013 57.4385L555.331 60.1056H560.081V61.4541H553.308ZM562.019 62.9525H561.24L567.233 49.4671H568.012L562.019 62.9525ZM569.126 61.4541V60.3153L572.827 56.5394C573.816 55.5505 574.31 54.7014 574.31 53.9922C574.31 53.4029 574.131 52.9434 573.771 52.6137C573.411 52.2841 572.972 52.1193 572.452 52.1193C571.463 52.1193 570.744 52.5887 570.295 53.5277L569.126 52.8385C569.456 52.1592 569.91 51.6448 570.489 51.2952C571.079 50.9455 571.728 50.7707 572.437 50.7707C573.316 50.7707 574.081 51.0604 574.73 51.6398C575.379 52.2192 575.704 52.9983 575.704 53.9772C575.704 55.0361 575.079 56.1898 573.831 57.4385L571.149 60.1056H575.899V61.4541H569.126ZM584.043 60.1655C583.334 61.1544 582.34 61.6489 581.062 61.6489C579.783 61.6489 578.789 61.1544 578.08 60.1655C577.371 59.1766 577.016 57.858 577.016 56.2098C577.016 54.5616 577.371 53.243 578.08 52.2541C578.789 51.2652 579.783 50.7707 581.062 50.7707C582.34 50.7707 583.334 51.2652 584.043 52.2541C584.753 53.243 585.107 54.5616 585.107 56.2098C585.107 57.858 584.753 59.1766 584.043 60.1655ZM579.099 59.2215C579.558 59.9308 580.213 60.2854 581.062 60.2854C581.911 60.2854 582.565 59.9308 583.025 59.2215C583.494 58.5123 583.729 57.5084 583.729 56.2098C583.729 54.9112 583.494 53.9073 583.025 53.1981C582.565 52.4789 581.911 52.1193 581.062 52.1193C580.213 52.1193 579.558 52.4739 579.099 53.1831C578.639 53.8923 578.41 54.9012 578.41 56.2098C578.41 57.5084 578.639 58.5123 579.099 59.2215ZM586.129 61.4541V60.3153L589.83 56.5394C590.819 55.5505 591.313 54.7014 591.313 53.9922C591.313 53.4029 591.133 52.9434 590.774 52.6137C590.414 52.2841 589.975 52.1193 589.455 52.1193C588.466 52.1193 587.747 52.5887 587.298 53.5277L586.129 52.8385C586.459 52.1592 586.913 51.6448 587.492 51.2952C588.082 50.9455 588.731 50.7707 589.44 50.7707C590.319 50.7707 591.084 51.0604 591.733 51.6398C592.382 52.2192 592.707 52.9983 592.707 53.9772C592.707 55.0361 592.082 56.1898 590.834 57.4385L588.152 60.1056H592.902V61.4541H586.129ZM601.046 60.1655C600.337 61.1544 599.343 61.6489 598.065 61.6489C596.786 61.6489 595.792 61.1544 595.083 60.1655C594.374 59.1766 594.019 57.858 594.019 56.2098C594.019 54.5616 594.374 53.243 595.083 52.2541C595.792 51.2652 596.786 50.7707 598.065 50.7707C599.343 50.7707 600.337 51.2652 601.046 52.2541C601.756 53.243 602.11 54.5616 602.11 56.2098C602.11 57.858 601.756 59.1766 601.046 60.1655ZM596.102 59.2215C596.561 59.9308 597.216 60.2854 598.065 60.2854C598.914 60.2854 599.568 59.9308 600.027 59.2215C600.497 58.5123 600.732 57.5084 600.732 56.2098C600.732 54.9112 600.497 53.9073 600.027 53.1981C599.568 52.4789 598.914 52.1193 598.065 52.1193C597.216 52.1193 596.561 52.4739 596.102 53.1831C595.642 53.8923 595.413 54.9012 595.413 56.2098C595.413 57.5084 595.642 58.5123 596.102 59.2215Z" fill="#404040"/>
<path d="M613.094 55.3218L618.01 60.3163L621.834 55.3218" stroke="#404040" stroke-width="1.24864" stroke-linecap="round" stroke-linejoin="round"/>
<rect x="690.197" y="48.1416" width="18.1053" height="18.1053" rx="5.30673" stroke="#0A459F" stroke-width="1.87296"/>
<rect x="691.758" y="49.7021" width="14.9837" height="14.9837" rx="6.24321" fill="#0A459F"/>
<path d="M723.923 52.3647H719.503V55.3015H723.773V56.9497H719.503V61.2051H717.78V50.7165H723.923V52.3647ZM726.959 52.2898C726.759 52.4896 726.519 52.5895 726.239 52.5895C725.96 52.5895 725.715 52.4896 725.505 52.2898C725.305 52.08 725.205 51.8353 725.205 51.5556C725.205 51.2759 725.305 51.0361 725.505 50.8364C725.705 50.6266 725.95 50.5217 726.239 50.5217C726.529 50.5217 726.774 50.6266 726.973 50.8364C727.173 51.0361 727.273 51.2759 727.273 51.5556C727.273 51.8353 727.168 52.08 726.959 52.2898ZM725.43 61.2051V53.7132H727.048V61.2051H725.43ZM730.546 54.9719C730.955 54.0429 731.724 53.5784 732.853 53.5784V55.3315C732.234 55.2915 731.694 55.4413 731.235 55.781C730.775 56.1106 730.546 56.66 730.546 57.4292V61.2051H728.927V53.7132H730.546V54.9719ZM735.239 55.781C735.239 56.0307 735.374 56.2305 735.643 56.3803C735.923 56.5202 736.258 56.645 736.647 56.7549C737.047 56.8548 737.446 56.9747 737.846 57.1145C738.245 57.2544 738.58 57.4941 738.85 57.8337C739.13 58.1634 739.269 58.5829 739.269 59.0924C739.269 59.8116 738.99 60.376 738.43 60.7855C737.881 61.1951 737.187 61.3999 736.348 61.3999C735.608 61.3999 734.974 61.245 734.445 60.9354C733.915 60.6257 733.531 60.1962 733.291 59.6468L734.684 58.8377C734.944 59.5569 735.498 59.9165 736.348 59.9165C737.197 59.9165 737.621 59.6368 737.621 59.0774C737.621 58.8377 737.481 58.6429 737.202 58.493C736.932 58.3432 736.597 58.2183 736.198 58.1184C735.808 58.0086 735.414 57.8837 735.014 57.7438C734.614 57.604 734.275 57.3742 733.995 57.0546C733.725 56.725 733.591 56.3104 733.591 55.8109C733.591 55.1217 733.85 54.5673 734.37 54.1478C734.899 53.7282 735.553 53.5184 736.333 53.5184C736.952 53.5184 737.501 53.6583 737.981 53.938C738.47 54.2077 738.845 54.5873 739.105 55.0767L737.741 55.8409C737.481 55.2715 737.012 54.9868 736.333 54.9868C736.023 54.9868 735.763 55.0568 735.553 55.1966C735.344 55.3265 735.239 55.5213 735.239 55.781ZM744.58 55.2715H742.722V58.8676C742.722 59.1773 742.792 59.402 742.931 59.5419C743.071 59.6717 743.276 59.7467 743.546 59.7666C743.825 59.7766 744.17 59.7716 744.58 59.7517V61.2051C743.341 61.3549 742.452 61.25 741.913 60.8904C741.373 60.5208 741.103 59.8466 741.103 58.8676V55.2715H739.725V53.7132H741.103V52.095L742.722 51.6155V53.7132H744.58V55.2715ZM754.047 55.2715H752.189V58.8676C752.189 59.1773 752.259 59.402 752.399 59.5419C752.539 59.6717 752.743 59.7467 753.013 59.7666C753.293 59.7766 753.637 59.7716 754.047 59.7517V61.2051C752.808 61.3549 751.919 61.25 751.38 60.8904C750.84 60.5208 750.571 59.8466 750.571 58.8676V55.2715H749.192V53.7132H750.571V52.095L752.189 51.6155V53.7132H754.047V55.2715ZM757.043 52.2898C756.843 52.4896 756.603 52.5895 756.324 52.5895C756.044 52.5895 755.799 52.4896 755.59 52.2898C755.39 52.08 755.29 51.8353 755.29 51.5556C755.29 51.2759 755.39 51.0361 755.59 50.8364C755.789 50.6266 756.034 50.5217 756.324 50.5217C756.613 50.5217 756.858 50.6266 757.058 50.8364C757.258 51.0361 757.358 51.2759 757.358 51.5556C757.358 51.8353 757.253 52.08 757.043 52.2898ZM755.515 61.2051V53.7132H757.133V61.2051H755.515ZM767.193 53.5184C768.042 53.5184 768.726 53.7931 769.246 54.3425C769.765 54.8919 770.025 55.6311 770.025 56.5601V61.2051H768.407V56.665C768.407 56.1456 768.277 55.746 768.017 55.4663C767.757 55.1766 767.403 55.0318 766.953 55.0318C766.454 55.0318 766.054 55.1966 765.754 55.5263C765.465 55.8559 765.32 56.3504 765.32 57.0096V61.2051H763.702V56.665C763.702 56.1456 763.577 55.746 763.327 55.4663C763.087 55.1766 762.743 55.0318 762.293 55.0318C761.804 55.0318 761.404 55.2016 761.095 55.5412C760.785 55.8709 760.63 56.3603 760.63 57.0096V61.2051H759.012V53.7132H760.63V54.6123C761.11 53.883 761.824 53.5184 762.773 53.5184C763.732 53.5184 764.441 53.913 764.9 54.7022C765.4 53.913 766.164 53.5184 767.193 53.5184ZM773.03 58.1484C773.15 58.7178 773.425 59.1573 773.854 59.467C774.284 59.7666 774.808 59.9165 775.428 59.9165C776.287 59.9165 776.931 59.6068 777.361 58.9875L778.694 59.7666C777.955 60.8555 776.861 61.3999 775.413 61.3999C774.194 61.3999 773.21 61.0303 772.461 60.2911C771.712 59.5419 771.337 58.5979 771.337 57.4592C771.337 56.3404 771.707 55.4064 772.446 54.6572C773.185 53.898 774.134 53.5184 775.293 53.5184C776.392 53.5184 777.291 53.903 777.99 54.6722C778.699 55.4413 779.054 56.3753 779.054 57.4741C779.054 57.644 779.034 57.8687 778.994 58.1484H773.03ZM773.015 56.8298H777.421C777.311 56.2205 777.056 55.761 776.656 55.4513C776.267 55.1417 775.807 54.9868 775.278 54.9868C774.679 54.9868 774.179 55.1517 773.78 55.4813C773.38 55.8109 773.125 56.2605 773.015 56.8298Z" fill="#0A459F"/>
<rect x="793.834" y="48.1416" width="18.1053" height="18.1053" rx="5.30673" stroke="#EA8BF9" stroke-width="1.87296"/>
<rect x="795.396" y="49.7021" width="14.9837" height="14.9837" rx="6.24321" fill="#EA8BF9"/>
<path d="M827.396 61.2051L825.178 57.3842H823.14V61.2051H821.417V50.7165H825.612C826.551 50.7165 827.346 51.0461 827.995 51.7054C828.654 52.3547 828.984 53.1488 828.984 54.0878C828.984 54.7571 828.789 55.3714 828.399 55.9308C828.02 56.4802 827.52 56.8798 826.901 57.1295L829.283 61.2051H827.396ZM823.14 52.3347V55.8409H825.612C826.072 55.8409 826.462 55.6711 826.781 55.3315C827.101 54.9918 827.261 54.5773 827.261 54.0878C827.261 53.5984 827.101 53.1838 826.781 52.8442C826.462 52.5045 826.072 52.3347 825.612 52.3347H823.14ZM831.38 58.1484C831.5 58.7178 831.774 59.1573 832.204 59.467C832.634 59.7666 833.158 59.9165 833.777 59.9165C834.636 59.9165 835.281 59.6068 835.71 58.9875L837.044 59.7666C836.305 60.8555 835.211 61.3999 833.762 61.3999C832.544 61.3999 831.56 61.0303 830.811 60.2911C830.061 59.5419 829.687 58.5979 829.687 57.4592C829.687 56.3404 830.056 55.4064 830.796 54.6572C831.535 53.898 832.484 53.5184 833.642 53.5184C834.741 53.5184 835.64 53.903 836.339 54.6722C837.049 55.4413 837.403 56.3753 837.403 57.4741C837.403 57.644 837.383 57.8687 837.343 58.1484H831.38ZM831.365 56.8298H835.77C835.66 56.2205 835.406 55.761 835.006 55.4513C834.616 55.1417 834.157 54.9868 833.627 54.9868C833.028 54.9868 832.529 55.1517 832.129 55.4813C831.73 55.8109 831.475 56.2605 831.365 56.8298ZM842.774 55.2715H840.916V58.8676C840.916 59.1773 840.986 59.402 841.125 59.5419C841.265 59.6717 841.47 59.7467 841.74 59.7666C842.019 59.7766 842.364 59.7716 842.774 59.7517V61.2051C841.535 61.3549 840.646 61.25 840.106 60.8904C839.567 60.5208 839.297 59.8466 839.297 58.8676V55.2715H837.919V53.7132H839.297V52.095L840.916 51.6155V53.7132H842.774V55.2715ZM849.364 53.7132H850.982V61.2051H849.364V60.2461C848.874 61.0153 848.1 61.3999 847.041 61.3999C846.182 61.3999 845.488 61.1252 844.959 60.5758C844.429 60.0264 844.165 59.2722 844.165 58.3132V53.7132H845.783V58.1484C845.783 58.7078 845.933 59.1373 846.232 59.437C846.532 59.7367 846.942 59.8865 847.461 59.8865C848.03 59.8865 848.49 59.7117 848.84 59.3621C849.189 59.0025 849.364 58.4581 849.364 57.7289V53.7132ZM854.493 54.9719C854.902 54.0429 855.671 53.5784 856.8 53.5784V55.3315C856.181 55.2915 855.641 55.4413 855.182 55.781C854.722 56.1106 854.493 56.66 854.493 57.4292V61.2051H852.874V53.7132H854.493V54.9719ZM861.937 53.5184C862.796 53.5184 863.49 53.7931 864.019 54.3425C864.549 54.8919 864.813 55.6461 864.813 56.6051V61.2051H863.195V56.7699C863.195 56.2105 863.045 55.781 862.746 55.4813C862.446 55.1816 862.036 55.0318 861.517 55.0318C860.948 55.0318 860.488 55.2116 860.139 55.5712C859.789 55.9208 859.614 56.4602 859.614 57.1894V61.2051H857.996V53.7132H859.614V54.6722C860.104 53.903 860.878 53.5184 861.937 53.5184ZM868.084 52.2898C867.884 52.4896 867.645 52.5895 867.365 52.5895C867.085 52.5895 866.841 52.4896 866.631 52.2898C866.431 52.08 866.331 51.8353 866.331 51.5556C866.331 51.2759 866.431 51.0361 866.631 50.8364C866.831 50.6266 867.075 50.5217 867.365 50.5217C867.655 50.5217 867.899 50.6266 868.099 50.8364C868.299 51.0361 868.399 51.2759 868.399 51.5556C868.399 51.8353 868.294 52.08 868.084 52.2898ZM866.556 61.2051V53.7132H868.174V61.2051H866.556ZM873.994 53.5184C874.853 53.5184 875.547 53.7931 876.076 54.3425C876.606 54.8919 876.871 55.6461 876.871 56.6051V61.2051H875.252V56.7699C875.252 56.2105 875.103 55.781 874.803 55.4813C874.503 55.1816 874.094 55.0318 873.574 55.0318C873.005 55.0318 872.545 55.2116 872.196 55.5712C871.846 55.9208 871.671 56.4602 871.671 57.1894V61.2051H870.053V53.7132H871.671V54.6722C872.161 53.903 872.935 53.5184 873.994 53.5184ZM884.577 53.7132H886.165V60.8605C886.165 61.9992 885.79 62.8733 885.041 63.4826C884.292 64.0919 883.383 64.3966 882.314 64.3966C880.586 64.3966 879.402 63.7923 878.763 62.5836L880.156 61.7745C880.546 62.5436 881.275 62.9282 882.344 62.9282C883.043 62.9282 883.588 62.7434 883.977 62.3738C884.377 62.0142 884.577 61.5097 884.577 60.8605V59.9464C883.967 60.8155 883.098 61.25 881.969 61.25C880.911 61.25 880.017 60.8754 879.287 60.1263C878.558 59.3671 878.194 58.4531 878.194 57.3842C878.194 56.3154 878.558 55.4064 879.287 54.6572C880.017 53.898 880.911 53.5184 881.969 53.5184C883.098 53.5184 883.967 53.953 884.577 54.822V53.7132ZM880.486 59.0624C880.946 59.5119 881.515 59.7367 882.194 59.7367C882.873 59.7367 883.438 59.5119 883.887 59.0624C884.347 58.6129 884.577 58.0535 884.577 57.3842C884.577 56.715 884.347 56.1556 883.887 55.7061C883.438 55.2566 882.873 55.0318 882.194 55.0318C881.515 55.0318 880.946 55.2566 880.486 55.7061C880.037 56.1556 879.812 56.715 879.812 57.3842C879.812 58.0535 880.037 58.6129 880.486 59.0624Z" fill="#EA8BF9"/>
<path d="M93.6587 258.225H888.305" stroke="#CACACA" stroke-width="1.24864"/>
<path d="M93.3149 263.606V258.225" stroke="#979797" stroke-width="1.24864"/>
<path d="M92.4999 282.882C94.5377 282.882 95.8862 281.443 95.8862 279.271V271.194H94.5976V279.376C94.5976 280.829 93.7585 281.773 92.5149 281.773C91.2862 281.773 90.3872 280.634 90.2374 278.926H89.0237C89.1735 281.293 90.567 282.882 92.4999 282.882ZM104.134 275.015V276.544H104.104C103.64 275.495 102.486 274.865 101.198 274.865C99.1748 274.865 97.8113 276.469 97.8113 278.866C97.8113 281.279 99.1598 282.882 101.183 282.882C102.486 282.882 103.655 282.252 104.104 281.204H104.134V282.732H105.363V275.015H104.134ZM101.602 281.878C100.089 281.878 99.0699 280.664 99.0699 278.866C99.0699 277.068 100.089 275.869 101.602 275.869C103.115 275.869 104.134 277.068 104.134 278.866C104.134 280.664 103.115 281.878 101.602 281.878ZM111.848 274.865C110.619 274.865 109.54 275.495 109.121 276.439H109.091V275.015H107.862V282.732H109.091V278.477C109.091 276.918 110.005 275.884 111.368 275.884C112.582 275.884 113.391 276.723 113.391 277.967V282.732H114.62V277.877C114.62 276.064 113.526 274.865 111.848 274.865Z" fill="#CACACA"/>
<path d="M95.8862 271.194H97.1348V269.946H95.8862V271.194ZM94.5976 271.194V269.946H93.349V271.194H94.5976ZM90.2374 278.926L91.4812 278.817L91.3813 277.677H90.2374V278.926ZM89.0237 278.926V277.677H87.6935L87.7775 279.005L89.0237 278.926ZM92.4999 284.13C93.8253 284.13 95.015 283.655 95.8681 282.745C96.7141 281.843 97.1348 280.615 97.1348 279.271H94.6376C94.6376 280.099 94.384 280.677 94.0464 281.037C93.7157 281.39 93.2123 281.633 92.4999 281.633V284.13ZM97.1348 279.271V271.194H94.6376V279.271H97.1348ZM95.8862 269.946H94.5976V272.443H95.8862V269.946ZM93.349 271.194V279.376H95.8462V271.194H93.349ZM93.349 279.376C93.349 279.867 93.2087 280.153 93.0826 280.297C92.9697 280.427 92.8003 280.524 92.5149 280.524V283.022C93.4731 283.022 94.345 282.647 94.9626 281.941C95.567 281.25 95.8462 280.337 95.8462 279.376H93.349ZM92.5149 280.524C92.3277 280.524 92.1391 280.452 91.948 280.212C91.7401 279.951 91.5404 279.492 91.4812 278.817L88.9935 279.035C89.1666 281.008 90.3176 283.022 92.5149 283.022V280.524ZM90.2374 277.677H89.0237V280.175H90.2374V277.677ZM87.7775 279.005C87.9544 281.8 89.6998 284.13 92.4999 284.13V281.633C91.4342 281.633 90.3926 280.787 90.2698 278.847L87.7775 279.005ZM104.134 275.015V273.767H102.886V275.015H104.134ZM104.134 276.544V277.792H105.383V276.544H104.134ZM104.104 276.544L102.963 277.049L103.292 277.792H104.104V276.544ZM104.104 281.204V279.955H103.281L102.957 280.712L104.104 281.204ZM104.134 281.204H105.383V279.955H104.134V281.204ZM104.134 282.732H102.886V283.981H104.134V282.732ZM105.363 282.732V283.981H106.612V282.732H105.363ZM105.363 275.015H106.612V273.767H105.363V275.015ZM102.886 275.015V276.544H105.383V275.015H102.886ZM104.134 275.295H104.104V277.792H104.134V275.295ZM105.246 276.038C104.535 274.433 102.855 273.617 101.198 273.617V276.114C102.117 276.114 102.744 276.556 102.963 277.049L105.246 276.038ZM101.198 273.617C99.8313 273.617 98.632 274.17 97.7933 275.159C96.9698 276.131 96.5626 277.438 96.5626 278.866H99.0599C99.0599 277.897 99.3345 277.203 99.6984 276.774C100.047 276.363 100.541 276.114 101.198 276.114V273.617ZM96.5626 278.866C96.5626 280.297 96.9632 281.607 97.7823 282.582C98.6177 283.576 99.8152 284.13 101.183 284.13V281.633C100.527 281.633 100.039 281.386 99.6945 280.975C99.3335 280.546 99.0599 279.848 99.0599 278.866H96.5626ZM101.183 284.13C102.84 284.13 104.554 283.324 105.252 281.695L102.957 280.712C102.756 281.181 102.132 281.633 101.183 281.633V284.13ZM104.104 282.452H104.134V279.955H104.104V282.452ZM102.886 281.204V282.732H105.383V281.204H102.886ZM104.134 283.981H105.363V281.483H104.134V283.981ZM106.612 282.732V275.015H104.114V282.732H106.612ZM105.363 273.767H104.134V276.264H105.363V273.767ZM101.602 280.629C101.206 280.629 100.926 280.482 100.724 280.243C100.508 279.985 100.319 279.537 100.319 278.866H97.8212C97.8212 279.994 98.1415 281.051 98.8126 281.85C99.4993 282.667 100.485 283.127 101.602 283.127V280.629ZM100.319 278.866C100.319 278.196 100.508 277.753 100.722 277.5C100.92 277.265 101.2 277.118 101.602 277.118V274.621C100.491 274.621 99.5045 275.073 98.8154 275.887C98.1417 276.683 97.8212 277.738 97.8212 278.866H100.319ZM101.602 277.118C102.004 277.118 102.284 277.265 102.483 277.5C102.697 277.753 102.886 278.196 102.886 278.866H105.383C105.383 277.738 105.063 276.683 104.389 275.887C103.7 275.073 102.714 274.621 101.602 274.621V277.118ZM102.886 278.866C102.886 279.537 102.697 279.985 102.48 280.243C102.279 280.482 101.999 280.629 101.602 280.629V283.127C102.719 283.127 103.705 282.667 104.392 281.85C105.063 281.051 105.383 279.994 105.383 278.866H102.886ZM109.121 276.439V277.687H109.932L110.262 276.946L109.121 276.439ZM109.091 276.439H107.842V277.687H109.091V276.439ZM109.091 275.015H110.339V273.767H109.091V275.015ZM107.862 275.015V273.767H106.614V275.015H107.862ZM107.862 282.732H106.614V283.981H107.862V282.732ZM109.091 282.732V283.981H110.339V282.732H109.091ZM113.391 282.732H112.142V283.981H113.391V282.732ZM114.62 282.732V283.981H115.868V282.732H114.62ZM111.848 273.617C110.232 273.617 108.64 274.447 107.98 275.932L110.262 276.946C110.441 276.543 111.006 276.114 111.848 276.114V273.617ZM109.121 275.19H109.091V277.687H109.121V275.19ZM110.339 276.439V275.015H107.842V276.439H110.339ZM109.091 273.767H107.862V276.264H109.091V273.767ZM106.614 275.015V282.732H109.111V275.015H106.614ZM107.862 283.981H109.091V281.483H107.862V283.981ZM110.339 282.732V278.477H107.842V282.732H110.339ZM110.339 278.477C110.339 277.937 110.496 277.602 110.656 277.421C110.803 277.254 111.022 277.133 111.368 277.133V274.636C110.351 274.636 109.432 275.032 108.781 275.771C108.143 276.496 107.842 277.458 107.842 278.477H110.339ZM111.368 277.133C111.678 277.133 111.846 277.233 111.938 277.328C112.034 277.427 112.142 277.62 112.142 277.967H114.64C114.64 277.071 114.344 276.222 113.731 275.59C113.116 274.955 112.273 274.636 111.368 274.636V277.133ZM112.142 277.967V282.732H114.64V277.967H112.142ZM113.391 283.981H114.62V281.483H113.391V283.981ZM115.868 282.732V277.877H113.371V282.732H115.868ZM115.868 277.877C115.868 276.722 115.517 275.647 114.783 274.847C114.039 274.037 112.999 273.617 111.848 273.617V276.114C112.375 276.114 112.721 276.294 112.943 276.536C113.176 276.789 113.371 277.22 113.371 277.877H115.868Z" fill="#979797"/>
<path d="M215.512 272.258V271.194H208.275V282.732H209.563V277.398H214.688V276.349H209.563V272.258H215.512ZM223.65 278.911C223.65 276.484 222.152 274.865 219.919 274.865C217.672 274.865 216.173 276.469 216.173 278.881C216.173 281.279 217.672 282.882 219.919 282.882C221.777 282.882 223.261 281.773 223.62 280.095H222.422C222.137 281.204 221.133 281.938 219.919 281.938C218.451 281.938 217.477 280.829 217.387 279.121H223.65V278.911ZM219.919 275.779C221.283 275.779 222.242 276.798 222.407 278.357H217.417C217.582 276.798 218.541 275.779 219.919 275.779ZM229.746 274.865C228.457 274.865 227.304 275.495 226.854 276.544H226.824V271.194H225.596V282.732H226.824V281.204H226.854C227.289 282.252 228.457 282.882 229.761 282.882C231.784 282.882 233.132 281.279 233.132 278.866C233.132 276.469 231.769 274.865 229.746 274.865ZM229.341 281.878C227.828 281.878 226.824 280.664 226.824 278.866C226.824 277.068 227.828 275.869 229.341 275.869C230.87 275.869 231.874 277.068 231.874 278.866C231.874 280.664 230.87 281.878 229.341 281.878Z" fill="#CACACA"/>
<path d="M215.512 272.258V273.507H216.761V272.258H215.512ZM215.512 271.194H216.761V269.946H215.512V271.194ZM208.275 271.194V269.946H207.026V271.194H208.275ZM208.275 282.732H207.026V283.981H208.275V282.732ZM209.563 282.732V283.981H210.812V282.732H209.563ZM209.563 277.398V276.149H208.315V277.398H209.563ZM214.688 277.398V278.646H215.937V277.398H214.688ZM214.688 276.349H215.937V275.1H214.688V276.349ZM209.563 276.349H208.315V277.598H209.563V276.349ZM209.563 272.258V271.01H208.315V272.258H209.563ZM216.761 272.258V271.194H214.263V272.258H216.761ZM215.512 269.946H208.275V272.443H215.512V269.946ZM207.026 271.194V282.732H209.524V271.194H207.026ZM208.275 283.981H209.563V281.483H208.275V283.981ZM210.812 282.732V277.398H208.315V282.732H210.812ZM209.563 278.646H214.688V276.149H209.563V278.646ZM215.937 277.398V276.349H213.439V277.398H215.937ZM214.688 275.1H209.563V277.598H214.688V275.1ZM210.812 276.349V272.258H208.315V276.349H210.812ZM209.563 273.507H215.512V271.01H209.563V273.507ZM223.62 280.095L224.841 280.356L225.165 278.846H223.62V280.095ZM222.422 280.095V278.846H221.453L221.212 279.784L222.422 280.095ZM217.387 279.121V277.872H216.071L216.14 279.186L217.387 279.121ZM223.65 279.121V280.37H224.899V279.121H223.65ZM222.407 278.357V279.605H223.794L223.648 278.225L222.407 278.357ZM217.417 278.357L216.175 278.225L216.029 279.605H217.417V278.357ZM224.899 278.911C224.899 277.441 224.442 276.109 223.54 275.131C222.629 274.144 221.352 273.617 219.919 273.617V276.114C220.719 276.114 221.308 276.396 221.705 276.825C222.109 277.263 222.402 277.954 222.402 278.911H224.899ZM219.919 273.617C218.485 273.617 217.206 274.136 216.291 275.117C215.383 276.089 214.925 277.416 214.925 278.881H217.422C217.422 277.933 217.713 277.253 218.116 276.821C218.512 276.396 219.106 276.114 219.919 276.114V273.617ZM214.925 278.881C214.925 280.34 215.384 281.664 216.292 282.634C217.207 283.611 218.485 284.13 219.919 284.13V281.633C219.106 281.633 218.512 281.351 218.115 280.927C217.712 280.496 217.422 279.819 217.422 278.881H214.925ZM219.919 284.13C222.289 284.13 224.343 282.683 224.841 280.356L222.399 279.833C222.179 280.863 221.266 281.633 219.919 281.633V284.13ZM223.62 278.846H222.422V281.343H223.62V278.846ZM221.212 279.784C221.083 280.289 220.619 280.689 219.919 280.689V283.186C221.648 283.186 223.191 282.118 223.631 280.405L221.212 279.784ZM219.919 280.689C219.524 280.689 219.258 280.551 219.068 280.338C218.86 280.106 218.668 279.695 218.634 279.055L216.14 279.186C216.196 280.255 216.536 281.252 217.205 282.002C217.891 282.77 218.847 283.186 219.919 283.186V280.689ZM217.387 280.37H223.65V277.872H217.387V280.37ZM224.899 279.121V278.911H222.402V279.121H224.899ZM219.919 277.028C220.268 277.028 220.521 277.149 220.711 277.348C220.914 277.56 221.106 277.927 221.165 278.488L223.648 278.225C223.543 277.228 223.172 276.307 222.514 275.62C221.843 274.919 220.934 274.531 219.919 274.531V277.028ZM222.407 277.108H217.417V279.605H222.407V277.108ZM218.659 278.488C218.718 277.927 218.909 277.561 219.113 277.35C219.303 277.152 219.559 277.028 219.919 277.028V274.531C218.901 274.531 217.989 274.916 217.314 275.618C216.652 276.306 216.281 277.228 216.175 278.225L218.659 278.488ZM226.854 276.544V277.792H227.678L228.002 277.036L226.854 276.544ZM226.824 276.544H225.576V277.792H226.824V276.544ZM226.824 271.194H228.073V269.946H226.824V271.194ZM225.596 271.194V269.946H224.347V271.194H225.596ZM225.596 282.732H224.347V283.981H225.596V282.732ZM226.824 282.732V283.981H228.073V282.732H226.824ZM226.824 281.204V279.955H225.576V281.204H226.824ZM226.854 281.204L228.008 280.726L227.688 279.955H226.854V281.204ZM229.746 273.617C228.093 273.617 226.401 274.431 225.706 276.052L228.002 277.036C228.206 276.558 228.822 276.114 229.746 276.114V273.617ZM226.854 275.295H226.824V277.792H226.854V275.295ZM228.073 276.544V271.194H225.576V276.544H228.073ZM226.824 269.946H225.596V272.443H226.824V269.946ZM224.347 271.194V282.732H226.844V271.194H224.347ZM225.596 283.981H226.824V281.483H225.596V283.981ZM228.073 282.732V281.204H225.576V282.732H228.073ZM226.824 282.452H226.854V279.955H226.824V282.452ZM225.701 281.682C226.382 283.326 228.108 284.13 229.761 284.13V281.633C228.807 281.633 228.196 281.179 228.008 280.726L225.701 281.682ZM229.761 284.13C231.128 284.13 232.326 283.576 233.161 282.582C233.98 281.607 234.381 280.297 234.381 278.866H231.884C231.884 279.848 231.61 280.546 231.249 280.975C230.905 281.386 230.416 281.633 229.761 281.633V284.13ZM234.381 278.866C234.381 277.438 233.974 276.131 233.15 275.159C232.312 274.17 231.112 273.617 229.746 273.617V276.114C230.403 276.114 230.896 276.363 231.245 276.774C231.609 277.203 231.884 277.897 231.884 278.866H234.381ZM229.341 280.629C228.946 280.629 228.672 280.483 228.475 280.247C228.261 279.99 228.073 279.541 228.073 278.866H225.576C225.576 279.989 225.89 281.046 226.556 281.846C227.239 282.666 228.224 283.127 229.341 283.127V280.629ZM228.073 278.866C228.073 278.191 228.261 277.748 228.472 277.496C228.666 277.264 228.941 277.118 229.341 277.118V274.621C228.229 274.621 227.245 275.074 226.559 275.891C225.89 276.688 225.576 277.743 225.576 278.866H228.073ZM229.341 277.118C229.753 277.118 230.031 277.267 230.226 277.498C230.437 277.749 230.625 278.191 230.625 278.866H233.122C233.122 277.743 232.808 276.687 232.135 275.889C231.446 275.071 230.458 274.621 229.341 274.621V277.118ZM230.625 278.866C230.625 279.541 230.437 279.989 230.223 280.245C230.026 280.48 229.748 280.629 229.341 280.629V283.127C230.463 283.127 231.451 282.669 232.138 281.848C232.808 281.047 233.122 279.989 233.122 278.866H230.625Z" fill="#979797"/>
<path d="M331.534 271.194L327.519 281.204H327.474L323.608 271.194H321.795V282.732H323.009L322.994 272.753H323.024L326.889 282.732H328.028L332.059 272.753H332.089L332.059 282.732H333.347V271.194H331.534ZM341.724 275.015V276.544H341.694C341.229 275.495 340.075 274.865 338.787 274.865C336.764 274.865 335.401 276.469 335.401 278.866C335.401 281.279 336.749 282.882 338.772 282.882C340.075 282.882 341.244 282.252 341.694 281.204H341.724V282.732H342.952V275.015H341.724ZM339.191 281.878C337.678 281.878 336.659 280.664 336.659 278.866C336.659 277.068 337.678 275.869 339.191 275.869C340.705 275.869 341.724 277.068 341.724 278.866C341.724 280.664 340.705 281.878 339.191 281.878ZM349.347 274.865C348.208 274.865 347.145 275.57 346.71 276.634H346.68V275.015H345.451V282.732H346.68V278.881C346.68 277.158 347.639 276.004 349.077 276.004C349.527 276.004 350.051 276.079 350.381 276.199V275.015C350.126 274.925 349.707 274.865 349.347 274.865Z" fill="#CACACA"/>
<path d="M331.534 271.194V269.946H330.69L330.375 270.73L331.534 271.194ZM327.519 281.204V282.452H328.363L328.678 281.669L327.519 281.204ZM327.474 281.204L326.309 281.653L326.617 282.452H327.474V281.204ZM323.608 271.194L324.773 270.745L324.464 269.946H323.608V271.194ZM321.795 271.194V269.946H320.546V271.194H321.795ZM321.795 282.732H320.546V283.981H321.795V282.732ZM323.009 282.732V283.981H324.259L324.257 282.73L323.009 282.732ZM322.994 272.753V271.504H321.743L321.745 272.755L322.994 272.753ZM323.024 272.753L324.188 272.302L323.879 271.504H323.024V272.753ZM326.889 282.732L325.725 283.183L326.034 283.981H326.889V282.732ZM328.028 282.732V283.981H328.87L329.186 283.2L328.028 282.732ZM332.059 272.753V271.504H331.216L330.901 272.285L332.059 272.753ZM332.089 272.753L333.337 272.757L333.341 271.504H332.089V272.753ZM332.059 282.732L330.81 282.728L330.806 283.981H332.059V282.732ZM333.347 282.732V283.981H334.596V282.732H333.347ZM333.347 271.194H334.596V269.946H333.347V271.194ZM330.375 270.73L326.36 280.739L328.678 281.669L332.693 271.659L330.375 270.73ZM327.519 279.955H327.474V282.452H327.519V279.955ZM328.638 280.754L324.773 270.745L322.443 271.644L326.309 281.653L328.638 280.754ZM323.608 269.946H321.795V272.443H323.608V269.946ZM320.546 271.194V282.732H323.044V271.194H320.546ZM321.795 283.981H323.009V281.483H321.795V283.981ZM324.257 282.73L324.242 272.751L321.745 272.755L321.76 282.734L324.257 282.73ZM322.994 274.001H323.024V271.504H322.994V274.001ZM321.859 273.204L325.725 283.183L328.054 282.281L324.188 272.302L321.859 273.204ZM326.889 283.981H328.028V281.483H326.889V283.981ZM329.186 283.2L333.216 273.22L330.901 272.285L326.87 282.264L329.186 283.2ZM332.059 274.001H332.089V271.504H332.059V274.001ZM330.84 272.749L330.81 282.728L333.307 282.736L333.337 272.757L330.84 272.749ZM332.059 283.981H333.347V281.483H332.059V283.981ZM334.596 282.732V271.194H332.099V282.732H334.596ZM333.347 269.946H331.534V272.443H333.347V269.946ZM341.724 275.015V273.767H340.475V275.015H341.724ZM341.724 276.544V277.792H342.972V276.544H341.724ZM341.694 276.544L340.552 277.049L340.881 277.792H341.694V276.544ZM341.694 281.204V279.955H340.87L340.546 280.712L341.694 281.204ZM341.724 281.204H342.972V279.955H341.724V281.204ZM341.724 282.732H340.475V283.981H341.724V282.732ZM342.952 282.732V283.981H344.201V282.732H342.952ZM342.952 275.015H344.201V273.767H342.952V275.015ZM340.475 275.015V276.544H342.972V275.015H340.475ZM341.724 275.295H341.694V277.792H341.724V275.295ZM342.835 276.038C342.125 274.433 340.444 273.617 338.787 273.617V276.114C339.706 276.114 340.334 276.556 340.552 277.049L342.835 276.038ZM338.787 273.617C337.421 273.617 336.221 274.17 335.383 275.159C334.559 276.131 334.152 277.438 334.152 278.866H336.649C336.649 277.897 336.924 277.203 337.288 276.774C337.637 276.363 338.13 276.114 338.787 276.114V273.617ZM334.152 278.866C334.152 280.297 334.553 281.607 335.372 282.582C336.207 283.576 337.404 284.13 338.772 284.13V281.633C338.116 281.633 337.628 281.386 337.284 280.975C336.923 280.546 336.649 279.848 336.649 278.866H334.152ZM338.772 284.13C340.43 284.13 342.144 283.324 342.841 281.695L340.546 280.712C340.345 281.181 339.721 281.633 338.772 281.633V284.13ZM341.694 282.452H341.724V279.955H341.694V282.452ZM340.475 281.204V282.732H342.972V281.204H340.475ZM341.724 283.981H342.952V281.483H341.724V283.981ZM344.201 282.732V275.015H341.704V282.732H344.201ZM342.952 273.767H341.724V276.264H342.952V273.767ZM339.191 280.629C338.795 280.629 338.515 280.482 338.314 280.243C338.097 279.985 337.908 279.537 337.908 278.866H335.411C335.411 279.994 335.731 281.051 336.402 281.85C337.089 282.667 338.075 283.127 339.191 283.127V280.629ZM337.908 278.866C337.908 278.196 338.097 277.753 338.311 277.5C338.51 277.265 338.79 277.118 339.191 277.118V274.621C338.08 274.621 337.094 275.073 336.405 275.887C335.731 276.683 335.411 277.738 335.411 278.866H337.908ZM339.191 277.118C339.593 277.118 339.873 277.265 340.072 277.5C340.286 277.753 340.475 278.196 340.475 278.866H342.972C342.972 277.738 342.652 276.683 341.978 275.887C341.289 275.073 340.303 274.621 339.191 274.621V277.118ZM340.475 278.866C340.475 279.537 340.286 279.985 340.069 280.243C339.868 280.482 339.588 280.629 339.191 280.629V283.127C340.308 283.127 341.294 282.667 341.981 281.85C342.652 281.051 342.972 279.994 342.972 278.866H340.475ZM346.71 276.634V277.882H347.549L347.866 277.106L346.71 276.634ZM346.68 276.634H345.431V277.882H346.68V276.634ZM346.68 275.015H347.929V273.767H346.68V275.015ZM345.451 275.015V273.767H344.203V275.015H345.451ZM345.451 282.732H344.203V283.981H345.451V282.732ZM346.68 282.732V283.981H347.929V282.732H346.68ZM350.381 276.199L349.954 277.373L351.63 277.982V276.199H350.381ZM350.381 275.015H351.63V274.132L350.797 273.838L350.381 275.015ZM349.347 273.617C347.706 273.617 346.182 274.623 345.554 276.161L347.866 277.106C348.107 276.516 348.711 276.114 349.347 276.114V273.617ZM346.71 275.385H346.68V277.882H346.71V275.385ZM347.929 276.634V275.015H345.431V276.634H347.929ZM346.68 273.767H345.451V276.264H346.68V273.767ZM344.203 275.015V282.732H346.7V275.015H344.203ZM345.451 283.981H346.68V281.483H345.451V283.981ZM347.929 282.732V278.881H345.431V282.732H347.929ZM347.929 278.881C347.929 278.243 348.106 277.827 348.299 277.596C348.475 277.384 348.72 277.253 349.077 277.253V274.756C347.997 274.756 347.043 275.202 346.38 275.998C345.734 276.773 345.431 277.796 345.431 278.881H347.929ZM349.077 277.253C349.432 277.253 349.802 277.317 349.954 277.373L350.808 275.026C350.301 274.841 349.622 274.756 349.077 274.756V277.253ZM351.63 276.199V275.015H349.132V276.199H351.63ZM350.797 273.838C350.37 273.687 349.801 273.617 349.347 273.617V276.114C349.613 276.114 349.883 276.164 349.966 276.193L350.797 273.838Z" fill="#979797"/>
<path d="M442.718 282.732H444.112L439.782 271.194H438.283L433.953 282.732H435.271L436.35 279.765H441.654L442.718 282.732ZM436.725 278.701L438.987 272.453H439.017L441.265 278.701H436.725ZM449.618 274.865C448.314 274.865 447.161 275.495 446.711 276.544H446.681V275.015H445.452V286.178H446.681V281.204H446.711C447.146 282.252 448.314 282.882 449.603 282.882C451.626 282.882 452.989 281.279 452.989 278.866C452.989 276.469 451.641 274.865 449.618 274.865ZM449.198 281.878C447.685 281.878 446.681 280.664 446.681 278.866C446.681 277.068 447.685 275.869 449.198 275.869C450.727 275.869 451.731 277.068 451.731 278.866C451.731 280.664 450.727 281.878 449.198 281.878ZM458.845 274.865C457.706 274.865 456.642 275.57 456.208 276.634H456.178V275.015H454.949V282.732H456.178V278.881C456.178 277.158 457.137 276.004 458.575 276.004C459.025 276.004 459.549 276.079 459.879 276.199V275.015C459.624 274.925 459.204 274.865 458.845 274.865Z" fill="#CACACA"/>
<path d="M442.718 282.732L441.543 283.153L441.84 283.981H442.718V282.732ZM444.112 282.732V283.981H445.914L445.281 282.293L444.112 282.732ZM439.782 271.194L440.951 270.756L440.647 269.946H439.782V271.194ZM438.283 271.194V269.946H437.418L437.114 270.756L438.283 271.194ZM433.953 282.732L432.784 282.293L432.151 283.981H433.953V282.732ZM435.271 282.732V283.981H436.146L436.445 283.159L435.271 282.732ZM436.35 279.765V278.517H435.476L435.177 279.338L436.35 279.765ZM441.654 279.765L442.83 279.344L442.533 278.517H441.654V279.765ZM436.725 278.701L435.551 278.276L434.945 279.95H436.725V278.701ZM438.987 272.453V271.204H438.112L437.813 272.028L438.987 272.453ZM439.017 272.453L440.192 272.03L439.895 271.204H439.017V272.453ZM441.265 278.701V279.95H443.041L442.44 278.279L441.265 278.701ZM442.718 283.981H444.112V281.483H442.718V283.981ZM445.281 282.293L440.951 270.756L438.612 271.633L442.943 283.171L445.281 282.293ZM439.782 269.946H438.283V272.443H439.782V269.946ZM437.114 270.756L432.784 282.293L435.122 283.171L439.452 271.633L437.114 270.756ZM433.953 283.981H435.271V281.483H433.953V283.981ZM436.445 283.159L437.524 280.192L435.177 279.338L434.098 282.305L436.445 283.159ZM436.35 281.014H441.654V278.517H436.35V281.014ZM440.479 280.187L441.543 283.153L443.894 282.31L442.83 279.344L440.479 280.187ZM437.899 279.126L440.161 272.878L437.813 272.028L435.551 278.276L437.899 279.126ZM438.987 273.702H439.017V271.204H438.987V273.702ZM437.842 272.876L440.09 279.124L442.44 278.279L440.192 272.03L437.842 272.876ZM441.265 277.453H436.725V279.95H441.265V277.453ZM446.711 276.544V277.792H447.534L447.859 277.036L446.711 276.544ZM446.681 276.544H445.433V277.792H446.681V276.544ZM446.681 275.015H447.93V273.767H446.681V275.015ZM445.452 275.015V273.767H444.204V275.015H445.452ZM445.452 286.178H444.204V287.427H445.452V286.178ZM446.681 286.178V287.427H447.93V286.178H446.681ZM446.681 281.204V279.955H445.433V281.204H446.681ZM446.711 281.204L447.865 280.726L447.545 279.955H446.711V281.204ZM449.618 273.617C447.953 273.617 446.259 274.429 445.563 276.052L447.859 277.036C448.062 276.561 448.675 276.114 449.618 276.114V273.617ZM446.711 275.295H446.681V277.792H446.711V275.295ZM447.93 276.544V275.015H445.433V276.544H447.93ZM446.681 273.767H445.452V276.264H446.681V273.767ZM444.204 275.015V286.178H446.701V275.015H444.204ZM445.452 287.427H446.681V284.93H445.452V287.427ZM447.93 286.178V281.204H445.433V286.178H447.93ZM446.681 282.452H446.711V279.955H446.681V282.452ZM445.558 281.682C446.238 283.323 447.962 284.13 449.603 284.13V281.633C448.667 281.633 448.054 281.182 447.865 280.726L445.558 281.682ZM449.603 284.13C450.97 284.13 452.169 283.577 453.008 282.585C453.832 281.611 454.238 280.3 454.238 278.866H451.741C451.741 279.844 451.465 280.542 451.101 280.973C450.752 281.385 450.259 281.633 449.603 281.633V284.13ZM454.238 278.866C454.238 277.441 453.836 276.135 453.017 275.162C452.182 274.171 450.985 273.617 449.618 273.617V276.114C450.274 276.114 450.762 276.362 451.107 276.771C451.468 277.2 451.741 277.894 451.741 278.866H454.238ZM449.198 280.629C448.803 280.629 448.529 280.483 448.332 280.247C448.118 279.99 447.93 279.541 447.93 278.866H445.433C445.433 279.989 445.747 281.046 446.413 281.846C447.096 282.666 448.08 283.127 449.198 283.127V280.629ZM447.93 278.866C447.93 278.191 448.118 277.748 448.329 277.496C448.523 277.264 448.798 277.118 449.198 277.118V274.621C448.086 274.621 447.102 275.074 446.416 275.891C445.747 276.688 445.433 277.743 445.433 278.866H447.93ZM449.198 277.118C449.61 277.118 449.888 277.267 450.083 277.498C450.294 277.749 450.482 278.191 450.482 278.866H452.979C452.979 277.743 452.665 276.687 451.992 275.889C451.303 275.071 450.315 274.621 449.198 274.621V277.118ZM450.482 278.866C450.482 279.541 450.294 279.989 450.08 280.245C449.883 280.48 449.605 280.629 449.198 280.629V283.127C450.32 283.127 451.308 282.669 451.995 281.848C452.665 281.047 452.979 279.989 452.979 278.866H450.482ZM456.208 276.634V277.882H457.046L457.364 277.106L456.208 276.634ZM456.178 276.634H454.929V277.882H456.178V276.634ZM456.178 275.015H457.426V273.767H456.178V275.015ZM454.949 275.015V273.767H453.7V275.015H454.949ZM454.949 282.732H453.7V283.981H454.949V282.732ZM456.178 282.732V283.981H457.426V282.732H456.178ZM459.879 276.199L459.452 277.373L461.127 277.982V276.199H459.879ZM459.879 275.015H461.127V274.132L460.294 273.838L459.879 275.015ZM458.845 273.617C457.204 273.617 455.68 274.623 455.052 276.161L457.364 277.106C457.604 276.516 458.208 276.114 458.845 276.114V273.617ZM456.208 275.385H456.178V277.882H456.208V275.385ZM457.426 276.634V275.015H454.929V276.634H457.426ZM456.178 273.767H454.949V276.264H456.178V273.767ZM453.7 275.015V282.732H456.198V275.015H453.7ZM454.949 283.981H456.178V281.483H454.949V283.981ZM457.426 282.732V278.881H454.929V282.732H457.426ZM457.426 278.881C457.426 278.243 457.603 277.827 457.796 277.596C457.973 277.384 458.217 277.253 458.575 277.253V274.756C457.495 274.756 456.54 275.202 455.877 275.998C455.231 276.773 454.929 277.796 454.929 278.881H457.426ZM458.575 277.253C458.93 277.253 459.3 277.317 459.452 277.373L460.305 275.026C459.798 274.841 459.119 274.756 458.575 274.756V277.253ZM461.127 276.199V275.015H458.63V276.199H461.127ZM460.294 273.838C459.867 273.687 459.298 273.617 458.845 273.617V276.114C459.111 276.114 459.38 276.164 459.463 276.193L460.294 273.838Z" fill="#979797"/>
<path d="M557.09 271.194L553.074 281.204H553.029L549.164 271.194H547.351V282.732H548.564L548.549 272.753H548.579L552.445 282.732H553.584L557.614 272.753H557.644L557.614 282.732H558.903V271.194H557.09ZM567.279 275.015V276.544H567.249C566.785 275.495 565.631 274.865 564.343 274.865C562.32 274.865 560.956 276.469 560.956 278.866C560.956 281.279 562.305 282.882 564.328 282.882C565.631 282.882 566.8 282.252 567.249 281.204H567.279V282.732H568.508V275.015H567.279ZM564.747 281.878C563.234 281.878 562.215 280.664 562.215 278.866C562.215 277.068 563.234 275.869 564.747 275.869C566.26 275.869 567.279 277.068 567.279 278.866C567.279 280.664 566.26 281.878 564.747 281.878ZM576.461 275.015L573.869 281.578H573.839L571.247 275.015H569.958L573.225 282.972L571.936 286.178H573.165L577.72 275.015H576.461Z" fill="#CACACA"/>
<path d="M557.09 271.194V269.946H556.246L555.931 270.73L557.09 271.194ZM553.074 281.204V282.452H553.919L554.233 281.669L553.074 281.204ZM553.029 281.204L551.865 281.653L552.173 282.452H553.029V281.204ZM549.164 271.194L550.328 270.745L550.02 269.946H549.164V271.194ZM547.351 271.194V269.946H546.102V271.194H547.351ZM547.351 282.732H546.102V283.981H547.351V282.732ZM548.564 282.732V283.981H549.815L549.813 282.73L548.564 282.732ZM548.549 272.753V271.504H547.299L547.301 272.755L548.549 272.753ZM548.579 272.753L549.744 272.302L549.435 271.504H548.579V272.753ZM552.445 282.732L551.281 283.183L551.59 283.981H552.445V282.732ZM553.584 282.732V283.981H554.426L554.742 283.2L553.584 282.732ZM557.614 272.753V271.504H556.772L556.457 272.285L557.614 272.753ZM557.644 272.753L558.893 272.757L558.897 271.504H557.644V272.753ZM557.614 282.732L556.366 282.728L556.362 283.981H557.614V282.732ZM558.903 282.732V283.981H560.152V282.732H558.903ZM558.903 271.194H560.152V269.946H558.903V271.194ZM555.931 270.73L551.915 280.739L554.233 281.669L558.249 271.659L555.931 270.73ZM553.074 279.955H553.029V282.452H553.074V279.955ZM554.194 280.754L550.328 270.745L547.999 271.644L551.865 281.653L554.194 280.754ZM549.164 269.946H547.351V272.443H549.164V269.946ZM546.102 271.194V282.732H548.599V271.194H546.102ZM547.351 283.981H548.564V281.483H547.351V283.981ZM549.813 282.73L549.798 272.751L547.301 272.755L547.316 282.734L549.813 282.73ZM548.549 274.001H548.579V271.504H548.549V274.001ZM547.415 273.204L551.281 283.183L553.609 282.281L549.744 272.302L547.415 273.204ZM552.445 283.981H553.584V281.483H552.445V283.981ZM554.742 283.2L558.772 273.22L556.457 272.285L552.426 282.264L554.742 283.2ZM557.614 274.001H557.644V271.504H557.614V274.001ZM556.396 272.749L556.366 282.728L558.863 282.736L558.893 272.757L556.396 272.749ZM557.614 283.981H558.903V281.483H557.614V283.981ZM560.152 282.732V271.194H557.654V282.732H560.152ZM558.903 269.946H557.09V272.443H558.903V269.946ZM567.279 275.015V273.767H566.031V275.015H567.279ZM567.279 276.544V277.792H568.528V276.544H567.279ZM567.249 276.544L566.108 277.049L566.437 277.792H567.249V276.544ZM567.249 281.204V279.955H566.426L566.102 280.712L567.249 281.204ZM567.279 281.204H568.528V279.955H567.279V281.204ZM567.279 282.732H566.031V283.981H567.279V282.732ZM568.508 282.732V283.981H569.757V282.732H568.508ZM568.508 275.015H569.757V273.767H568.508V275.015ZM566.031 275.015V276.544H568.528V275.015H566.031ZM567.279 275.295H567.249V277.792H567.279V275.295ZM568.391 276.038C567.68 274.433 566 273.617 564.343 273.617V276.114C565.262 276.114 565.889 276.556 566.108 277.049L568.391 276.038ZM564.343 273.617C562.976 273.617 561.777 274.17 560.938 275.159C560.115 276.131 559.708 277.438 559.708 278.866H562.205C562.205 277.897 562.479 277.203 562.843 276.774C563.192 276.363 563.686 276.114 564.343 276.114V273.617ZM559.708 278.866C559.708 280.297 560.108 281.607 560.927 282.582C561.763 283.576 562.96 284.13 564.328 284.13V281.633C563.672 281.633 563.184 281.386 562.839 280.975C562.478 280.546 562.205 279.848 562.205 278.866H559.708ZM564.328 284.13C565.985 284.13 567.699 283.324 568.397 281.695L566.102 280.712C565.9 281.181 565.277 281.633 564.328 281.633V284.13ZM567.249 282.452H567.279V279.955H567.249V282.452ZM566.031 281.204V282.732H568.528V281.204H566.031ZM567.279 283.981H568.508V281.483H567.279V283.981ZM569.757 282.732V275.015H567.259V282.732H569.757ZM568.508 273.767H567.279V276.264H568.508V273.767ZM564.747 280.629C564.35 280.629 564.07 280.482 563.869 280.243C563.653 279.985 563.463 279.537 563.463 278.866H560.966C560.966 279.994 561.286 281.051 561.958 281.85C562.644 282.667 563.63 283.127 564.747 283.127V280.629ZM563.463 278.866C563.463 278.196 563.652 277.753 563.867 277.5C564.065 277.265 564.345 277.118 564.747 277.118V274.621C563.636 274.621 562.649 275.073 561.96 275.887C561.287 276.683 560.966 277.738 560.966 278.866H563.463ZM564.747 277.118C565.149 277.118 565.429 277.265 565.628 277.5C565.842 277.753 566.031 278.196 566.031 278.866H568.528C568.528 277.738 568.208 276.683 567.534 275.887C566.845 275.073 565.859 274.621 564.747 274.621V277.118ZM566.031 278.866C566.031 279.537 565.841 279.985 565.625 280.243C565.424 280.482 565.144 280.629 564.747 280.629V283.127C565.864 283.127 566.85 282.667 567.537 281.85C568.208 281.051 568.528 279.994 568.528 278.866H566.031ZM576.461 275.015V273.767H575.612L575.3 274.557L576.461 275.015ZM573.869 281.578V282.827H574.718L575.03 282.037L573.869 281.578ZM573.839 281.578L572.678 282.037L572.99 282.827H573.839V281.578ZM571.247 275.015L572.408 274.557L572.096 273.767H571.247V275.015ZM569.958 275.015V273.767H568.096L568.803 275.49L569.958 275.015ZM573.225 282.972L574.383 283.437L574.572 282.967L574.38 282.497L573.225 282.972ZM571.936 286.178L570.778 285.713L570.089 287.427H571.936V286.178ZM573.165 286.178V287.427H574.004L574.321 286.65L573.165 286.178ZM577.72 275.015L578.876 275.487L579.578 273.767H577.72V275.015ZM575.3 274.557L572.708 281.119L575.03 282.037L577.623 275.474L575.3 274.557ZM573.869 280.33H573.839V282.827H573.869V280.33ZM575 281.119L572.408 274.557L570.086 275.474L572.678 282.037L575 281.119ZM571.247 273.767H569.958V276.264H571.247V273.767ZM568.803 275.49L572.07 283.446L574.38 282.497L571.113 274.541L568.803 275.49ZM572.066 282.506L570.778 285.713L573.095 286.644L574.383 283.437L572.066 282.506ZM571.936 287.427H573.165V284.93H571.936V287.427ZM574.321 286.65L578.876 275.487L576.564 274.544L572.009 285.706L574.321 286.65ZM577.72 273.767H576.461V276.264H577.72V273.767Z" fill="#979797"/>
<path d="M663.269 282.882C665.307 282.882 666.656 281.443 666.656 279.271V271.194H665.367V279.376C665.367 280.829 664.528 281.773 663.284 281.773C662.056 281.773 661.157 280.634 661.007 278.926H659.793C659.943 281.293 661.337 282.882 663.269 282.882ZM672.312 282.882C674.305 282.882 675.623 281.608 675.623 279.72V275.015H674.394V279.585C674.394 280.964 673.555 281.878 672.312 281.878C671.068 281.878 670.229 280.964 670.229 279.585V275.015H669V279.72C669 281.608 670.334 282.882 672.312 282.882ZM681.988 274.865C680.759 274.865 679.681 275.495 679.261 276.439H679.231V275.015H678.002V282.732H679.231V278.477C679.231 276.918 680.145 275.884 681.509 275.884C682.722 275.884 683.531 276.723 683.531 277.967V282.732H684.76V277.877C684.76 276.064 683.666 274.865 681.988 274.865Z" fill="#CACACA"/>
<path d="M666.656 271.194H667.904V269.946H666.656V271.194ZM665.367 271.194V269.946H664.118V271.194H665.367ZM661.007 278.926L662.251 278.817L662.151 277.677H661.007V278.926ZM659.793 278.926V277.677H658.463L658.547 279.005L659.793 278.926ZM663.269 284.13C664.595 284.13 665.785 283.655 666.638 282.745C667.484 281.843 667.904 280.615 667.904 279.271H665.407C665.407 280.099 665.154 280.677 664.816 281.037C664.485 281.39 663.982 281.633 663.269 281.633V284.13ZM667.904 279.271V271.194H665.407V279.271H667.904ZM666.656 269.946H665.367V272.443H666.656V269.946ZM664.118 271.194V279.376H666.616V271.194H664.118ZM664.118 279.376C664.118 279.867 663.978 280.153 663.852 280.297C663.739 280.427 663.57 280.524 663.284 280.524V283.022C664.243 283.022 665.115 282.647 665.732 281.941C666.337 281.25 666.616 280.337 666.616 279.376H664.118ZM663.284 280.524C663.097 280.524 662.909 280.452 662.718 280.212C662.51 279.951 662.31 279.492 662.251 278.817L659.763 279.035C659.936 281.008 661.087 283.022 663.284 283.022V280.524ZM661.007 277.677H659.793V280.175H661.007V277.677ZM658.547 279.005C658.724 281.8 660.469 284.13 663.269 284.13V281.633C662.204 281.633 661.162 280.787 661.039 278.847L658.547 279.005ZM675.623 275.015H676.872V273.767H675.623V275.015ZM674.394 275.015V273.767H673.146V275.015H674.394ZM670.229 275.015H671.478V273.767H670.229V275.015ZM669 275.015V273.767H667.752V275.015H669ZM672.312 284.13C673.577 284.13 674.731 283.722 675.578 282.911C676.43 282.095 676.872 280.965 676.872 279.72H674.374C674.374 280.363 674.157 280.814 673.851 281.107C673.541 281.405 673.04 281.633 672.312 281.633V284.13ZM676.872 279.72V275.015H674.374V279.72H676.872ZM675.623 273.767H674.394V276.264H675.623V273.767ZM673.146 275.015V279.585H675.643V275.015H673.146ZM673.146 279.585C673.146 280.023 673.015 280.277 672.897 280.408C672.787 280.528 672.612 280.629 672.312 280.629V283.127C673.256 283.127 674.122 282.771 674.742 282.09C675.354 281.418 675.643 280.526 675.643 279.585H673.146ZM672.312 280.629C672.012 280.629 671.837 280.528 671.727 280.408C671.608 280.277 671.478 280.023 671.478 279.585H668.98C668.98 280.526 669.269 281.418 669.881 282.09C670.502 282.771 671.368 283.127 672.312 283.127V280.629ZM671.478 279.585V275.015H668.98V279.585H671.478ZM670.229 273.767H669V276.264H670.229V273.767ZM667.752 275.015V279.72H670.249V275.015H667.752ZM667.752 279.72C667.752 280.97 668.2 282.098 669.052 282.912C669.899 283.721 671.052 284.13 672.312 284.13V281.633C671.593 281.633 671.091 281.406 670.777 281.106C670.468 280.811 670.249 280.359 670.249 279.72H667.752ZM679.261 276.439V277.687H680.073L680.402 276.946L679.261 276.439ZM679.231 276.439H677.983V277.687H679.231V276.439ZM679.231 275.015H680.48V273.767H679.231V275.015ZM678.002 275.015V273.767H676.754V275.015H678.002ZM678.002 282.732H676.754V283.981H678.002V282.732ZM679.231 282.732V283.981H680.48V282.732H679.231ZM683.531 282.732H682.283V283.981H683.531V282.732ZM684.76 282.732V283.981H686.009V282.732H684.76ZM681.988 273.617C680.373 273.617 678.78 274.447 678.12 275.932L680.402 276.946C680.581 276.543 681.146 276.114 681.988 276.114V273.617ZM679.261 275.19H679.231V277.687H679.261V275.19ZM680.48 276.439V275.015H677.983V276.439H680.48ZM679.231 273.767H678.002V276.264H679.231V273.767ZM676.754 275.015V282.732H679.251V275.015H676.754ZM678.002 283.981H679.231V281.483H678.002V283.981ZM680.48 282.732V278.477H677.983V282.732H680.48ZM680.48 278.477C680.48 277.937 680.636 277.602 680.796 277.421C680.943 277.254 681.163 277.133 681.509 277.133V274.636C680.491 274.636 679.572 275.032 678.921 275.771C678.283 276.496 677.983 277.458 677.983 278.477H680.48ZM681.509 277.133C681.818 277.133 681.987 277.233 682.079 277.328C682.174 277.427 682.283 277.62 682.283 277.967H684.78C684.78 277.071 684.484 276.222 683.872 275.59C683.256 274.955 682.413 274.636 681.509 274.636V277.133ZM682.283 277.967V282.732H684.78V277.967H682.283ZM683.531 283.981H684.76V281.483H683.531V283.981ZM686.009 282.732V277.877H683.511V282.732H686.009ZM686.009 277.877C686.009 276.722 685.657 275.647 684.923 274.847C684.179 274.037 683.139 273.617 681.988 273.617V276.114C682.515 276.114 682.861 276.294 683.084 276.536C683.316 276.789 683.511 277.22 683.511 277.877H686.009Z" fill="#979797"/>
<path d="M778.455 282.882C780.493 282.882 781.841 281.443 781.841 279.271V271.194H780.553V279.376C780.553 280.829 779.714 281.773 778.47 281.773C777.241 281.773 776.342 280.634 776.192 278.926H774.979C775.129 281.293 776.522 282.882 778.455 282.882ZM787.497 282.882C789.49 282.882 790.809 281.608 790.809 279.72V275.015H789.58V279.585C789.58 280.964 788.741 281.878 787.497 281.878C786.254 281.878 785.415 280.964 785.415 279.585V275.015H784.186V279.72C784.186 281.608 785.519 282.882 787.497 282.882ZM793.233 282.732H794.462V271.194H793.233V282.732Z" fill="#CACACA"/>
<path d="M781.841 271.194H783.09V269.946H781.841V271.194ZM780.553 271.194V269.946H779.304V271.194H780.553ZM776.192 278.926L777.436 278.817L777.336 277.677H776.192V278.926ZM774.979 278.926V277.677H773.649L773.733 279.005L774.979 278.926ZM778.455 284.13C779.78 284.13 780.97 283.655 781.823 282.745C782.669 281.843 783.09 280.615 783.09 279.271H780.593C780.593 280.099 780.339 280.677 780.001 281.037C779.671 281.39 779.167 281.633 778.455 281.633V284.13ZM783.09 279.271V271.194H780.593V279.271H783.09ZM781.841 269.946H780.553V272.443H781.841V269.946ZM779.304 271.194V279.376H781.801V271.194H779.304ZM779.304 279.376C779.304 279.867 779.164 280.153 779.038 280.297C778.925 280.427 778.755 280.524 778.47 280.524V283.022C779.428 283.022 780.3 282.647 780.918 281.941C781.522 281.25 781.801 280.337 781.801 279.376H779.304ZM778.47 280.524C778.283 280.524 778.094 280.452 777.903 280.212C777.695 279.951 777.495 279.492 777.436 278.817L774.949 279.035C775.122 281.008 776.273 283.022 778.47 283.022V280.524ZM776.192 277.677H774.979V280.175H776.192V277.677ZM773.733 279.005C773.909 281.8 775.655 284.13 778.455 284.13V281.633C777.389 281.633 776.348 280.787 776.225 278.847L773.733 279.005ZM790.809 275.015H792.057V273.767H790.809V275.015ZM789.58 275.015V273.767H788.331V275.015H789.58ZM785.415 275.015H786.663V273.767H785.415V275.015ZM784.186 275.015V273.767H782.937V275.015H784.186ZM787.497 284.13C788.762 284.13 789.917 283.722 790.764 282.911C791.616 282.095 792.057 280.965 792.057 279.72H789.56C789.56 280.363 789.342 280.814 789.037 281.107C788.726 281.405 788.225 281.633 787.497 281.633V284.13ZM792.057 279.72V275.015H789.56V279.72H792.057ZM790.809 273.767H789.58V276.264H790.809V273.767ZM788.331 275.015V279.585H790.829V275.015H788.331ZM788.331 279.585C788.331 280.023 788.201 280.277 788.082 280.408C787.972 280.528 787.797 280.629 787.497 280.629V283.127C788.441 283.127 789.307 282.771 789.928 282.09C790.54 281.418 790.829 280.526 790.829 279.585H788.331ZM787.497 280.629C787.197 280.629 787.022 280.528 786.912 280.408C786.794 280.277 786.663 280.023 786.663 279.585H784.166C784.166 280.526 784.455 281.418 785.067 282.09C785.687 282.771 786.553 283.127 787.497 283.127V280.629ZM786.663 279.585V275.015H784.166V279.585H786.663ZM785.415 273.767H784.186V276.264H785.415V273.767ZM782.937 275.015V279.72H785.435V275.015H782.937ZM782.937 279.72C782.937 280.97 783.385 282.098 784.238 282.912C785.085 283.721 786.238 284.13 787.497 284.13V281.633C786.779 281.633 786.276 281.406 785.962 281.106C785.653 280.811 785.435 280.359 785.435 279.72H782.937ZM793.233 282.732H791.984V283.981H793.233V282.732ZM794.462 282.732V283.981H795.71V282.732H794.462ZM794.462 271.194H795.71V269.946H794.462V271.194ZM793.233 271.194V269.946H791.984V271.194H793.233ZM793.233 283.981H794.462V281.483H793.233V283.981ZM795.71 282.732V271.194H793.213V282.732H795.71ZM794.462 269.946H793.233V272.443H794.462V269.946ZM791.984 271.194V282.732H794.482V271.194H791.984Z" fill="#979797"/>
<path d="M206.836 263.606V258.225" stroke="#979797" stroke-width="1.24864"/>
<path d="M320.356 263.606V258.225" stroke="#979797" stroke-width="1.24864"/>
<path d="M433.878 263.606V258.225" stroke="#979797" stroke-width="1.24864"/>
<path d="M547.398 263.606V258.225" stroke="#979797" stroke-width="1.24864"/>
<path d="M660.92 263.606V258.225" stroke="#979797" stroke-width="1.24864"/>
<path d="M774.44 263.606V258.225" stroke="#979797" stroke-width="1.24864"/>
<path d="M85.9502 257.684H93.9167" stroke="#979797" stroke-width="1.24864"/>
<path d="M70.8451 263.405C73.4672 263.405 75.0106 261.217 75.0106 257.486C75.0106 253.755 73.4672 251.568 70.8451 251.568C68.2379 251.568 66.6796 253.755 66.6796 257.486C66.6796 261.217 68.2379 263.405 70.8451 263.405ZM70.8451 262.296C69.062 262.296 67.9982 260.513 67.9982 257.486C67.9982 254.459 69.062 252.676 70.8451 252.676C72.6431 252.676 73.692 254.459 73.692 257.486C73.692 260.513 72.6431 262.296 70.8451 262.296Z" fill="#CACACA"/>
<path d="M70.8451 264.653C72.5536 264.653 73.9796 263.916 74.932 262.564C75.8465 261.265 76.2592 259.499 76.2592 257.486H73.7619C73.7619 259.204 73.403 260.398 72.8902 261.126C72.4155 261.8 71.7587 262.156 70.8451 262.156V264.653ZM76.2592 257.486C76.2592 255.473 75.8465 253.707 74.932 252.409C73.9796 251.056 72.5536 250.319 70.8451 250.319V252.816C71.7587 252.816 72.4155 253.173 72.8902 253.847C73.403 254.575 73.7619 255.768 73.7619 257.486H76.2592ZM70.8451 250.319C69.1423 250.319 67.7178 251.058 66.7647 252.408C65.8484 253.705 65.431 255.471 65.431 257.486H67.9283C67.9283 255.771 68.29 254.577 68.8047 253.848C69.2824 253.171 69.9407 252.816 70.8451 252.816V250.319ZM65.431 257.486C65.431 259.502 65.8484 261.267 66.7647 262.565C67.7178 263.915 69.1423 264.653 70.8451 264.653V262.156C69.9407 262.156 69.2824 261.801 68.8047 261.124C68.29 260.395 67.9283 259.202 67.9283 257.486H65.431ZM70.8451 261.047C70.4529 261.047 70.1224 260.887 69.8269 260.389C69.4965 259.832 69.2468 258.881 69.2468 257.486H66.7495C66.7495 259.118 67.0318 260.572 67.6791 261.663C68.3613 262.813 69.4542 263.545 70.8451 263.545V261.047ZM69.2468 257.486C69.2468 256.091 69.4965 255.14 69.8269 254.583C70.1224 254.085 70.4529 253.925 70.8451 253.925V251.428C69.4542 251.428 68.3613 252.159 67.6791 253.309C67.0318 254.4 66.7495 255.854 66.7495 257.486H69.2468ZM70.8451 253.925C71.2471 253.925 71.5758 254.087 71.8678 254.581C72.1965 255.138 72.4433 256.088 72.4433 257.486H74.9406C74.9406 255.857 74.6631 254.403 74.0178 253.311C73.3359 252.157 72.2411 251.428 70.8451 251.428V253.925ZM72.4433 257.486C72.4433 258.884 72.1965 259.835 71.8678 260.391C71.5758 260.885 71.2471 261.047 70.8451 261.047V263.545C72.2411 263.545 73.3359 262.815 74.0178 261.661C74.6631 260.569 74.9406 259.115 74.9406 257.486H72.4433Z" fill="#979797"/>
<path d="M85.9502 184.084H93.9167" stroke="#979797" stroke-width="1.24864"/>
<path d="M61.1444 178.118C60.7249 179.272 59.9907 179.662 58.3275 179.662V180.576H60.7249V189.656H62.0135V178.118H61.1444ZM65.0886 188.202C64.5792 188.202 64.2346 188.532 64.2346 189.011C64.2346 189.491 64.5342 189.806 64.9688 189.806C65.0886 189.806 65.2235 189.791 65.3583 189.746C65.2684 190.48 64.774 191.079 64.0547 191.274L64.1446 191.724C65.2534 191.409 66.0026 190.45 66.0026 189.341C66.0026 188.652 65.628 188.202 65.0886 188.202ZM71.6384 181.984C70.4996 181.984 69.4807 182.494 68.8065 183.318L68.7765 183.303L69.3908 179.182H74.3504V178.118H68.2221L67.3081 185.101H68.5667C68.9563 183.842 70.0051 183.018 71.2038 183.018C72.8221 183.018 73.8859 184.157 73.8859 185.865C73.8859 187.573 72.7921 188.697 71.1289 188.697C69.7055 188.697 68.6716 187.858 68.5068 186.569H67.2332C67.428 188.517 68.9863 189.806 71.1289 189.806C73.5713 189.806 75.2195 188.232 75.2195 185.865C75.2195 183.542 73.796 181.984 71.6384 181.984Z" fill="#CACACA"/>
<path d="M61.1444 178.118V176.87H60.2698L59.9709 177.692L61.1444 178.118ZM58.3275 179.662V178.413H57.0788V179.662H58.3275ZM58.3275 180.576H57.0788V181.824H58.3275V180.576ZM60.7249 180.576H61.9735V179.327H60.7249V180.576ZM60.7249 189.656H59.4762V190.904H60.7249V189.656ZM62.0135 189.656V190.904H63.2621V189.656H62.0135ZM62.0135 178.118H63.2621V176.87H62.0135V178.118ZM59.9709 177.692C59.8315 178.075 59.7062 178.171 59.6054 178.226C59.4407 178.316 59.0974 178.413 58.3275 178.413V180.91C59.2207 180.91 60.0762 180.813 60.7992 180.419C61.5862 179.991 62.0378 179.315 62.3179 178.545L59.9709 177.692ZM57.0788 179.662V180.576H59.5761V179.662H57.0788ZM58.3275 181.824H60.7249V179.327H58.3275V181.824ZM59.4762 180.576V189.656H61.9735V180.576H59.4762ZM60.7249 190.904H62.0135V188.407H60.7249V190.904ZM63.2621 189.656V178.118H60.7648V189.656H63.2621ZM62.0135 176.87H61.1444V179.367H62.0135V176.87ZM65.3583 189.746L66.5977 189.897L66.8379 187.936L64.9635 188.561L65.3583 189.746ZM64.0547 191.274L63.7283 190.069L62.6014 190.374L62.8304 191.519L64.0547 191.274ZM64.1446 191.724L62.9203 191.968L63.1853 193.294L64.4855 192.925L64.1446 191.724ZM65.0886 186.954C64.562 186.954 64.0252 187.128 63.6105 187.522C63.1909 187.921 62.9859 188.461 62.9859 189.011H65.4832C65.4832 189.083 65.4505 189.218 65.3305 189.332C65.2156 189.442 65.1058 189.451 65.0886 189.451V186.954ZM62.9859 189.011C62.9859 189.512 63.1458 190.033 63.5255 190.44C63.9116 190.854 64.4368 191.054 64.9688 191.054V188.557C65.0662 188.557 65.2243 188.6 65.3519 188.737C65.4732 188.867 65.4832 188.99 65.4832 189.011H62.9859ZM64.9688 191.054C65.1889 191.054 65.4624 191.027 65.7532 190.93L64.9635 188.561C64.9749 188.557 64.9813 188.556 64.9813 188.556C64.9815 188.556 64.9804 188.557 64.9782 188.557C64.9759 188.557 64.9728 188.557 64.9688 188.557V191.054ZM64.1189 189.594C64.0877 189.849 63.9334 190.013 63.7283 190.069L64.3812 192.479C65.6145 192.145 66.4491 191.111 66.5977 189.897L64.1189 189.594ZM62.8304 191.519L62.9203 191.968L65.369 191.479L65.2791 191.029L62.8304 191.519ZM64.4855 192.925C66.1001 192.467 67.2513 191.04 67.2513 189.341H64.754C64.754 189.86 64.4068 190.351 63.8038 190.522L64.4855 192.925ZM67.2513 189.341C67.2513 188.779 67.0985 188.196 66.7176 187.727C66.3198 187.236 65.7352 186.954 65.0886 186.954V189.451C65.047 189.451 64.9868 189.442 64.9216 189.41C64.8567 189.379 64.8088 189.338 64.7783 189.3C64.7195 189.228 64.754 189.214 64.754 189.341H67.2513ZM68.8065 183.318L68.248 184.434L69.1408 184.881L69.7728 184.108L68.8065 183.318ZM68.7765 183.303L67.5415 183.119L67.4079 184.014L68.2181 184.419L68.7765 183.303ZM69.3908 179.182V177.934H68.3145L68.1558 178.998L69.3908 179.182ZM74.3504 179.182V180.431H75.5991V179.182H74.3504ZM74.3504 178.118H75.5991V176.87H74.3504V178.118ZM68.2221 178.118V176.87H67.1262L66.984 177.956L68.2221 178.118ZM67.3081 185.101L66.07 184.939L65.8853 186.349H67.3081V185.101ZM68.5667 185.101V186.349H69.4873L69.7595 185.47L68.5667 185.101ZM68.5068 186.569L69.7453 186.411L69.6059 185.32H68.5068V186.569ZM67.2332 186.569V185.32H65.8534L65.9907 186.693L67.2332 186.569ZM71.6384 180.735C70.118 180.735 68.747 181.419 67.8401 182.527L69.7728 184.108C70.2145 183.569 70.8812 183.233 71.6384 183.233V180.735ZM69.3649 182.201L69.3349 182.186L68.2181 184.419L68.248 184.434L69.3649 182.201ZM70.0115 183.487L70.6258 179.366L68.1558 178.998L67.5415 183.119L70.0115 183.487ZM69.3908 180.431H74.3504V177.934H69.3908V180.431ZM75.5991 179.182V178.118H73.1018V179.182H75.5991ZM74.3504 176.87H68.2221V179.367H74.3504V176.87ZM66.984 177.956L66.07 184.939L68.5462 185.263L69.4602 178.28L66.984 177.956ZM67.3081 186.349H68.5667V183.852H67.3081V186.349ZM69.7595 185.47C70.0075 184.669 70.6182 184.267 71.2038 184.267V181.769C69.3921 181.769 67.9051 183.015 67.3739 184.732L69.7595 185.47ZM71.2038 184.267C71.7075 184.267 72.0351 184.436 72.2419 184.656C72.4555 184.883 72.6373 185.27 72.6373 185.865H75.1346C75.1346 184.751 74.7844 183.715 74.0616 182.946C73.3318 182.169 72.3184 181.769 71.2038 181.769V184.267ZM72.6373 185.865C72.6373 186.449 72.4547 186.826 72.2364 187.05C72.0212 187.272 71.6708 187.448 71.1289 187.448V189.945C72.2502 189.945 73.2784 189.56 74.0258 188.792C74.7702 188.028 75.1346 186.989 75.1346 185.865H72.6373ZM71.1289 187.448C70.2429 187.448 69.8194 186.99 69.7453 186.411L67.2682 186.728C67.5238 188.726 69.168 189.945 71.1289 189.945V187.448ZM68.5068 185.32H67.2332V187.818H68.5068V185.32ZM65.9907 186.693C66.2587 189.373 68.4436 191.054 71.1289 191.054V188.557C69.529 188.557 68.5972 187.661 68.4756 186.445L65.9907 186.693ZM71.1289 191.054C72.6208 191.054 73.9704 190.57 74.9552 189.623C75.9446 188.673 76.4681 187.349 76.4681 185.865H73.9708C73.9708 186.748 73.6702 187.395 73.225 187.823C72.7751 188.255 72.0794 188.557 71.1289 188.557V191.054ZM76.4681 185.865C76.4681 184.45 76.0317 183.159 75.1569 182.208C74.2732 181.248 73.033 180.735 71.6384 180.735V183.233C72.4014 183.233 72.9518 183.5 73.3192 183.899C73.6956 184.308 73.9708 184.957 73.9708 185.865H76.4681Z" fill="#979797"/>
<path d="M85.9502 111.071H93.9167" stroke="#979797" stroke-width="1.24864"/>
<path d="M72.4618 110.694V110.664C73.8553 110.275 74.7094 109.316 74.7094 108.042C74.7094 106.184 73.2559 104.955 71.0683 104.955C68.9856 104.955 67.5471 106.409 67.4423 108.596H68.6559C68.7309 107.068 69.6748 106.034 71.0383 106.034C72.4468 106.034 73.3908 106.873 73.3908 108.132C73.3908 109.39 72.3719 110.23 70.8286 110.23H70.6038V111.218H70.9484C72.6266 111.218 73.7204 112.118 73.7204 113.466C73.7204 114.815 72.6566 115.714 71.0533 115.714C69.555 115.714 68.5061 114.695 68.4612 113.166H67.2175C67.3074 115.354 68.8357 116.792 71.0383 116.792C73.4507 116.792 75.054 115.504 75.054 113.556C75.054 112.147 74.0651 111.084 72.4618 110.694Z" fill="#CACACA"/>
<path d="M72.4618 110.694H71.2132V111.676L72.167 111.907L72.4618 110.694ZM72.4618 110.664L72.1256 109.462L71.2132 109.717V110.664H72.4618ZM67.4423 108.596L66.1951 108.537L66.1323 109.845H67.4423V108.596ZM68.6559 108.596V109.845H69.8449L69.9031 108.657L68.6559 108.596ZM70.6038 110.23V108.981H69.3552V110.23H70.6038ZM70.6038 111.218H69.3552V112.467H70.6038V111.218ZM68.4612 113.166L69.7093 113.13L69.6736 111.918H68.4612V113.166ZM67.2175 113.166V111.918H65.9165L65.9699 113.218L67.2175 113.166ZM73.7104 110.694V110.664H71.2132V110.694H73.7104ZM72.798 111.867C74.5953 111.364 75.958 110.005 75.958 108.042H73.4607C73.4607 108.626 73.1153 109.185 72.1256 109.462L72.798 111.867ZM75.958 108.042C75.958 106.762 75.4454 105.636 74.5162 104.849C73.6061 104.078 72.3883 103.707 71.0683 103.707V106.204C71.936 106.204 72.5387 106.447 72.9021 106.755C73.2466 107.046 73.4607 107.464 73.4607 108.042H75.958ZM71.0683 103.707C69.7245 103.707 68.5158 104.182 67.6281 105.075C66.7457 105.963 66.26 107.181 66.1951 108.537L68.6895 108.656C68.7294 107.824 69.0154 107.222 69.3991 106.836C69.7775 106.455 70.3294 106.204 71.0683 106.204V103.707ZM67.4423 109.845H68.6559V107.348H67.4423V109.845ZM69.9031 108.657C69.9288 108.132 70.0979 107.787 70.2805 107.59C70.4518 107.405 70.6924 107.283 71.0383 107.283V104.785C70.0208 104.785 69.1076 105.18 68.4473 105.894C67.7984 106.596 67.458 107.532 67.4088 108.535L69.9031 108.657ZM71.0383 107.283C71.4983 107.283 71.7712 107.418 71.9121 107.543C72.0401 107.657 72.1421 107.834 72.1421 108.132H74.6394C74.6394 107.171 74.2695 106.299 73.5733 105.679C72.8902 105.07 71.9869 104.785 71.0383 104.785V107.283ZM72.1421 108.132C72.1421 108.395 72.049 108.562 71.8966 108.687C71.7222 108.83 71.3835 108.981 70.8286 108.981V111.478C71.817 111.478 72.7594 111.209 73.4802 110.618C74.2231 110.009 74.6394 109.127 74.6394 108.132H72.1421ZM70.8286 108.981H70.6038V111.478H70.8286V108.981ZM69.3552 110.23V111.218H71.8525V110.23H69.3552ZM70.6038 112.467H70.9484V109.97H70.6038V112.467ZM70.9484 112.467C71.5748 112.467 71.9666 112.635 72.1755 112.805C72.3612 112.956 72.4718 113.159 72.4718 113.466H74.9691C74.9691 112.424 74.5327 111.504 73.752 110.868C72.9945 110.252 72.0003 109.97 70.9484 109.97V112.467ZM72.4718 113.466C72.4718 113.786 72.3576 113.994 72.1831 114.141C71.9896 114.304 71.6292 114.465 71.0533 114.465V116.962C72.0807 116.962 73.0539 116.673 73.7931 116.05C74.5514 115.411 74.9691 114.494 74.9691 113.466H72.4718ZM71.0533 114.465C70.5948 114.465 70.2831 114.314 70.0859 114.121C69.8881 113.927 69.7234 113.61 69.7093 113.13L67.2131 113.203C67.2439 114.251 67.626 115.207 68.3385 115.905C69.0516 116.604 70.0135 116.962 71.0533 116.962V114.465ZM68.4612 111.918H67.2175V114.415H68.4612V111.918ZM65.9699 113.218C66.0267 114.598 66.5461 115.825 67.4772 116.706C68.4067 117.587 69.6599 118.041 71.0383 118.041V115.544C70.2141 115.544 69.6019 115.279 69.1941 114.893C68.7879 114.508 68.4983 113.922 68.4651 113.115L65.9699 113.218ZM71.0383 118.041C72.4561 118.041 73.7586 117.663 74.734 116.877C75.7334 116.072 76.3026 114.904 76.3026 113.556H73.8053C73.8053 114.156 73.5729 114.606 73.1676 114.932C72.7382 115.278 72.0329 115.544 71.0383 115.544V118.041ZM76.3026 113.556C76.3026 111.424 74.7619 109.968 72.7566 109.481L72.167 111.907C73.3682 112.199 73.8053 112.871 73.8053 113.556H76.3026Z" fill="#979797"/>
<path d="M93.6587 258.226H887.795" stroke="#BFBFBF" stroke-width="0.624321"/>
<path d="M93.6587 221.391H887.795" stroke="#BFBFBF" stroke-width="0.624321"/>
<path d="M93.6587 184.556H887.795" stroke="#BFBFBF" stroke-width="0.624321"/>
<path d="M93.6587 147.721H887.795" stroke="#BFBFBF" stroke-width="0.624321"/>
<path d="M93.6592 110.886H887.795" stroke="#BFBFBF" stroke-width="0.624321"/>
<path d="M93.6592 110.886V258.226" stroke="#BFBFBF" stroke-width="0.624321"/>
<path d="M207.106 110.886V258.225" stroke="#BFBFBF" stroke-width="0.624321"/>
<path d="M320.554 110.886V258.225" stroke="#BFBFBF" stroke-width="0.624321"/>
<path d="M434.003 110.886V258.225" stroke="#BFBFBF" stroke-width="0.624321"/>
<path d="M547.451 110.886V258.225" stroke="#BFBFBF" stroke-width="0.624321"/>
<path d="M660.898 110.886V258.225" stroke="#BFBFBF" stroke-width="0.624321"/>
<path d="M774.347 110.886V258.225" stroke="#BFBFBF" stroke-width="0.624321"/>
<path d="M93.916 231.528C127.543 166.288 172.494 145.615 207.356 175.397C237.203 200.895 278.305 257.059 320.795 231.675C363.285 206.292 373.273 112.212 434.235 112.212C495.197 112.212 522.104 189.092 547.674 219.92C573.244 250.748 619.117 215.158 661.511 183.7C703.905 152.243 726.641 132.464 774.553 122.792C822.465 113.119 887.993 212.279 887.993 212.279" stroke="#0A459F" stroke-width="2.24755"/>
<path d="M93.916 110.742V257.683" stroke="#4D4D4D" stroke-width="1.24864"/>
<path d="M887.131 231.528C853.504 166.288 808.553 145.615 773.692 175.396C743.844 200.894 702.742 257.059 660.252 231.675C617.762 206.291 607.774 112.212 546.813 112.211C485.851 112.211 458.943 189.092 433.373 219.92C407.803 250.747 361.931 215.157 319.537 183.7C277.143 152.242 254.406 132.464 206.494 122.791C158.582 113.119 93.0544 212.279 93.0544 212.279" stroke="#EA8BF9" stroke-width="2.24755"/>
<path d="M93.0542 110.742V257.683" stroke="#4D4D4D" stroke-width="1.24864"/>
</g>
<defs>
<filter id="filter0_d" x="0" y="0" width="943.995" height="322.171" filterUnits="userSpaceOnUse" color-interpolation-filters="sRGB">
<feFlood flood-opacity="0" result="BackgroundImageFix"/>
<feColorMatrix in="SourceAlpha" type="matrix" values="0 0 0 0 0 0 0 0 0 0 0 0 0 0 0 0 0 0 127 0"/>
<feOffset dy="4"/>
<feGaussianBlur stdDeviation="5"/>
<feColorMatrix type="matrix" values="0 0 0 0 0.791064 0 0 0 0 0.791064 0 0 0 0 0.791064 0 0 0 0.5 0"/>
<feBlend mode="normal" in2="BackgroundImageFix" result="effect1_dropShadow"/>
<feBlend mode="normal" in="SourceGraphic" in2="effect1_dropShadow" result="shape"/>
</filter>
</defs>
</svg>
