<svg width="160" height="43" viewBox="0 0 160 43" fill="none" xmlns="http://www.w3.org/2000/svg">
<path d="M69.7893 16.3674L67.2756 25.6913H67.2269L64.7376 16.3674H61.6627L59.1491 25.6913H59.1002L56.5866 16.3674H53.2432L57.3187 29.1054H60.7109L63.127 19.7816H63.1757L65.6162 29.1054H68.9839L73.0595 16.3674H69.7893Z" fill="white"/>
<path d="M79.4813 29.3489C83.4607 29.3489 86.1186 26.7159 86.1186 22.7358C86.1186 18.7558 83.4607 16.1228 79.4813 16.1228C75.5018 16.1228 72.8682 18.7558 72.8682 22.7358C72.8682 26.7159 75.5018 29.3489 79.4813 29.3489ZM79.4813 26.7891C77.4789 26.7891 76.1602 25.1531 76.1602 22.7358C76.1602 20.2941 77.4789 18.6582 79.4813 18.6582C81.4836 18.6582 82.8267 20.2941 82.8267 22.7358C82.8267 25.1531 81.4836 26.7891 79.4813 26.7891Z" fill="white"/>
<path d="M94.857 16.1228C93.0752 16.1228 91.4643 17.2687 90.8053 18.9999H90.7564V16.3668H87.5376V29.1048H90.7564V23.1507C90.7564 20.6352 92.1477 18.9754 94.2224 18.9754C95.0034 18.9754 95.8821 19.1219 96.4435 19.3415V16.3668C96.0285 16.2203 95.3939 16.1228 94.857 16.1228Z" fill="white"/>
<path d="M97.2515 29.1051H100.47V10.314H97.2515V29.1051ZM104.571 22.0773L109.867 16.3671H106.206L100.836 22.1749L107.085 29.1051H110.844L104.571 22.0773Z" fill="white"/>
<path d="M126.149 16.3674L123.635 25.6913H123.586L121.097 16.3674H118.022L115.508 25.6913H115.46L112.946 16.3674H109.603L113.678 29.1054H117.07L119.486 19.7816H119.535L121.975 29.1054H125.343L129.419 16.3674H126.149Z" fill="white"/>
<path d="M131.812 14.0215C132.933 14.0215 133.665 13.3143 133.665 12.2657C133.665 11.2171 132.933 10.5099 131.812 10.5099C130.69 10.5099 129.934 11.2171 129.934 12.2657C129.934 13.3143 130.69 14.0215 131.812 14.0215ZM130.226 29.1057H133.445V16.3678H130.226V29.1057Z" fill="white"/>
<path d="M140.596 29.3489C144.088 29.3489 146.404 27.7159 146.404 25.2263C146.404 22.394 143.624 21.7835 141.354 21.3929C139.693 21.0999 138.228 20.8069 138.228 19.6838C138.228 18.7559 139.18 18.1456 140.596 18.1456C142.037 18.1456 143.014 18.9757 143.063 20.2209H146.087C145.965 17.7557 143.795 16.1228 140.596 16.1228C137.325 16.1228 135.155 17.6338 135.155 19.9523C135.155 22.7114 137.764 23.2729 140.01 23.6392C141.744 23.9078 143.332 24.2252 143.332 25.5681C143.332 26.618 142.233 27.3016 140.596 27.3016C138.936 27.3016 137.813 26.4227 137.764 25.1286H134.765C134.887 27.6428 137.203 29.3489 140.596 29.3489Z" fill="white"/>
<path d="M160 22.8571C160 18.8051 157.413 16.1228 153.532 16.1228C149.603 16.1228 146.994 18.7562 146.994 22.7353C146.994 26.6912 149.603 29.3489 153.532 29.3489C156.827 29.3489 159.39 27.4963 159.951 24.6881H156.827C156.461 26.1049 155.118 27.0331 153.532 27.0331C151.628 27.0331 150.31 25.5675 150.139 23.2956H160V22.8571ZM153.532 18.3409C155.241 18.3409 156.485 19.6356 156.803 21.6634H150.188C150.53 19.6356 151.775 18.3409 153.532 18.3409Z" fill="white"/>
<path fill-rule="evenodd" clip-rule="evenodd" d="M21.347 0C33.1286 0 42.6939 9.56526 42.6939 21.347C42.6939 33.1287 33.1286 42.6939 21.347 42.6939C9.56526 42.6939 0 33.1287 0 21.347C0 9.56526 9.56526 0 21.347 0ZM11.598 16.3708L11.5789 16.3789C11.57 16.3827 11.561 16.3867 11.5522 16.3908C11.5434 16.395 11.5347 16.3992 11.526 16.4037L11.5127 16.4107L11.4584 16.4413L11.4299 16.461L11.4152 16.4701L11.4072 16.4767L11.3777 16.499L11.3457 16.5256L11.3348 16.5351L11.3373 16.533L11.3348 16.5351L11.3367 16.5336C11.3105 16.5572 11.2858 16.5824 11.2627 16.6091L11.1572 16.7614L11.1464 16.7837L9.93128 18.8885H9.93165L9.92029 18.9079C9.91309 18.9206 9.90607 18.9335 9.89924 18.9464C9.88327 18.9768 9.86859 19.0079 9.8552 19.0395C9.84329 19.0676 9.83248 19.0964 9.82269 19.1254C9.81309 19.1539 9.8045 19.1828 9.79702 19.212C9.79019 19.2386 9.78428 19.2654 9.7792 19.2925C9.77422 19.3192 9.77015 19.3459 9.76692 19.3729C9.76351 19.4018 9.76101 19.4308 9.75963 19.4599C9.75898 19.4723 9.75861 19.4847 9.75834 19.4972L9.75815 19.5163L9.76397 19.6421L9.76637 19.6585L9.76711 19.671L9.77283 19.7019L9.78197 19.7643L9.79038 19.7977L9.79453 19.8201L9.80201 19.8439L9.81161 19.8823L9.8311 19.9365L9.83913 19.9623L9.84467 19.9745L9.85224 19.9955L9.90007 20.0966C9.90257 20.1014 9.90515 20.1062 9.90774 20.1109C9.91291 20.1205 9.91817 20.1299 9.92352 20.1392C9.92879 20.1483 9.93405 20.1571 9.9395 20.166L9.9479 20.1794L14.7118 28.4307L14.7122 28.4303V28.4302C14.9042 28.7549 15.2402 28.9831 15.6313 29.0248L15.7559 29.0316C16.2062 29.0334 16.6006 28.7885 16.8134 28.423V28.4231H16.8138L20.2624 22.4501H20.2626L20.2675 22.441C20.2819 22.4138 20.2972 22.3874 20.3134 22.3616L20.2651 22.4452L20.2626 22.4501L20.3134 22.3616C20.5306 22.0175 20.9128 21.7901 21.3467 21.7917H21.3472C21.7812 21.7901 22.1634 22.0175 22.3805 22.3616L22.4313 22.4501L22.4288 22.4452L22.3805 22.3616C22.3968 22.3874 22.4121 22.4138 22.4265 22.441L22.4313 22.4501H22.4316L25.8801 28.4231H25.8806L25.8805 28.423C26.0933 28.7885 26.4878 29.0334 26.938 29.0316L27.0626 29.0248C27.4538 28.9831 27.7898 28.7549 27.9818 28.4302V28.4303L27.9822 28.4307L32.7461 20.1794L32.7544 20.166C32.7599 20.1571 32.7652 20.1483 32.7704 20.1392C32.7758 20.1299 32.7811 20.1205 32.7863 20.1109C32.7888 20.1062 32.7913 20.1014 32.7938 20.0966L32.8418 19.9955L32.8492 19.9745L32.8548 19.9623L32.8629 19.9365L32.8823 19.8823L32.892 19.8439L32.8995 19.8201L32.9035 19.7977L32.9119 19.7643L32.9212 19.7019L32.9268 19.671L32.9275 19.6585L32.93 19.6421L32.9358 19.5163L32.9356 19.4972C32.9354 19.4847 32.9349 19.4723 32.9343 19.4599C32.9329 19.4308 32.9305 19.4018 32.9271 19.3729C32.9238 19.3459 32.9197 19.3192 32.9148 19.2925C32.9097 19.2654 32.9038 19.2386 32.897 19.212C32.8894 19.1828 32.8809 19.1539 32.8712 19.1254C32.8615 19.0964 32.8506 19.0676 32.8387 19.0395C32.8253 19.0079 32.8106 18.9768 32.7947 18.9464C32.7879 18.9335 32.7809 18.9206 32.7736 18.9079L32.7623 18.8885H32.7627L31.5475 16.7837L31.5368 16.7614L31.4313 16.6091C31.4082 16.5824 31.3835 16.5572 31.3573 16.5336L31.3592 16.5351L31.3566 16.533L31.3592 16.5351L31.3483 16.5256L31.3162 16.499L31.2868 16.4767L31.2787 16.4701L31.2641 16.461L31.2356 16.4413L31.1813 16.4107L31.168 16.4037C31.1593 16.3992 31.1505 16.395 31.1418 16.3908C31.1329 16.3867 31.124 16.3827 31.115 16.3789L31.096 16.3708L31.0905 16.369L31.0809 16.3653C31.0745 16.363 31.0683 16.3607 31.0619 16.3585L31.0287 16.3476L31.0238 16.3464L31.0056 16.3414L30.9431 16.3264L30.9189 16.3229L30.9074 16.3203L30.9189 16.3229L30.8628 16.3148L30.7802 16.3109L30.7572 16.3112L30.7371 16.312L30.7261 16.3126L30.6202 16.3259L30.5896 16.3323L30.5567 16.3406L30.5462 16.3435L30.5116 16.3544L30.4939 16.3605L30.4581 16.3744L30.4466 16.3794L30.4252 16.389L30.4 16.4014C30.2966 16.4512 30.2057 16.5226 30.132 16.6091L30.0405 16.7337L30.0237 16.7614L30.0194 16.7701L27.9804 20.3018H27.9787C27.7673 20.6593 27.3805 20.899 26.938 20.9007C26.4921 20.9025 26.1009 20.6622 25.8878 20.3018H25.8863L22.4226 14.3024C22.2144 13.9196 21.8102 13.6605 21.3472 13.6623H21.3467C20.8837 13.6605 20.4796 13.9196 20.2714 14.3024L16.8076 20.3018H16.8062C16.593 20.6622 16.2018 20.9025 15.7559 20.9007C15.3134 20.899 14.9266 20.6593 14.7153 20.3018H14.7135L12.6746 16.7701L12.6703 16.7614L12.6535 16.7337L12.562 16.6091C12.4882 16.5226 12.3974 16.4512 12.294 16.4014L12.2687 16.389L12.2473 16.3794L12.2358 16.3744L12.2001 16.3605L12.1824 16.3544L12.1477 16.3435L12.1373 16.3406L12.1043 16.3323L12.0738 16.3259L11.9679 16.3126L11.9568 16.312L11.9368 16.3112L11.9137 16.3109L11.8312 16.3148L11.775 16.3229L11.7866 16.3203L11.7943 16.3197L11.7866 16.3203L11.775 16.3229L11.7508 16.3264L11.6883 16.3414L11.6702 16.3464L11.6652 16.3476L11.6321 16.3585C11.6257 16.3607 11.6194 16.363 11.6131 16.3653L11.6035 16.369L11.598 16.3708Z" fill="white"/>
</svg>
