<svg width="64" height="64" viewBox="0 0 64 64" fill="none" xmlns="http://www.w3.org/2000/svg">
<path d="M17.3332 32C21.223 32 24.9535 33.5453 27.7041 36.2958C30.4546 39.0463 31.9998 42.7768 31.9998 46.6667C31.9998 50.5565 30.4546 54.2871 27.7041 57.0376C24.9535 59.7881 21.223 61.3334 17.3332 61.3334C13.4433 61.3334 9.7128 59.7881 6.96227 57.0376C4.21174 54.2871 2.6665 50.5565 2.6665 46.6667C2.6665 42.7768 4.21174 39.0463 6.96227 36.2958C9.7128 33.5453 13.4433 32 17.3332 32ZM17.3332 37.328C16.1616 37.3281 15.0329 37.7689 14.1713 38.5628C13.3097 39.3567 12.7782 40.4457 12.6825 41.6134L12.6665 41.9947V44.08C12.1452 44.2148 11.6769 44.5043 11.3233 44.9103C10.9696 45.3163 10.7472 45.8198 10.6852 46.3547L10.6665 46.6614V53.328C10.6666 53.9812 10.9064 54.6116 11.3404 55.0997C11.7744 55.5878 12.3725 55.8996 13.0212 55.976L13.3332 55.9947H21.3332C21.9863 55.9946 22.6167 55.7548 23.1048 55.3208C23.5929 54.8868 23.9048 54.2887 23.9812 53.64L23.9998 53.328V46.6614C24.0001 46.1207 23.836 45.5926 23.5293 45.1473C23.2226 44.7021 22.7878 44.3605 22.2825 44.168L22.0025 44.08L21.9998 41.9947C21.9998 41.3819 21.8791 40.775 21.6446 40.2088C21.4101 39.6426 21.0663 39.1282 20.633 38.6949C20.1997 38.2615 19.6852 37.9178 19.119 37.6833C18.5528 37.4487 17.946 37.328 17.3332 37.328ZM17.3332 39.9947C17.8165 39.9947 18.2834 40.1697 18.6477 40.4874C19.0119 40.8051 19.2488 41.2439 19.3145 41.7227L19.3332 41.9947V43.9947H15.3332V41.9947C15.3332 41.4643 15.5439 40.9555 15.919 40.5805C16.294 40.2054 16.8027 39.9947 17.3332 39.9947ZM41.7145 36.8534C42.9092 38.0454 43.8905 39.512 44.5732 41.072C44.7861 41.5579 44.7972 42.1084 44.6042 42.6025C44.4111 43.0966 44.0297 43.4938 43.5438 43.7067C43.058 43.9196 42.5074 43.9307 42.0133 43.7377C41.5192 43.5446 41.1221 43.1632 40.9092 42.6774C40.1417 40.8807 38.842 39.3625 37.1851 38.3274C35.5281 37.2922 33.5937 36.7899 31.6425 36.888C30.7467 35.5765 29.6754 34.394 28.4585 33.3734C30.7781 32.7252 33.2284 32.7059 35.558 33.3174C37.8875 33.929 40.0124 35.1494 41.7145 36.8534ZM47.3198 28.6667C48.923 30.2904 50.2651 32.1524 51.2985 34.1867C51.5251 34.6571 51.5588 35.1975 51.3924 35.6924C51.2259 36.1873 50.8725 36.5975 50.4077 36.8353C49.9428 37.0731 49.4034 37.1197 48.9046 36.9651C48.4059 36.8106 47.9874 36.4671 47.7385 36.008C46.8943 34.3459 45.7988 32.824 44.4905 31.496C41.5121 28.5189 37.5603 26.7152 33.3597 26.416C29.1592 26.1167 24.9915 27.3418 21.6212 29.8667C19.8668 29.4229 18.054 29.2546 16.2478 29.368C18.2073 27.2239 20.581 25.499 23.2255 24.2976C25.87 23.0962 28.7306 22.4431 31.6345 22.3778C34.5384 22.3125 37.4255 22.8363 40.1213 23.9177C42.8172 24.999 45.266 26.6154 47.3198 28.6694V28.6667ZM54.5278 22.0774C55.8878 23.4347 57.1678 24.984 58.2825 26.6027C58.4394 26.8184 58.5515 27.0634 58.6123 27.3231C58.6731 27.5829 58.6813 27.8521 58.6364 28.1151C58.5916 28.378 58.4946 28.6294 58.3512 28.8543C58.2077 29.0792 58.0208 29.2731 57.8012 29.4247C57.5817 29.5762 57.3341 29.6824 57.073 29.7368C56.8118 29.7912 56.5424 29.7928 56.2807 29.7416C56.0189 29.6903 55.77 29.5872 55.5487 29.4384C55.3273 29.2895 55.138 29.0978 54.9918 28.8747C54.0155 27.4565 52.9142 26.1285 51.7012 24.9067C40.8212 14.0267 23.1785 14.0267 12.2985 24.9067C11.1758 26.0294 10.0585 27.3947 9.03984 28.8614C8.89291 29.0836 8.70305 29.2743 8.48141 29.4222C8.25976 29.5701 8.0108 29.6722 7.74915 29.7225C7.48749 29.7728 7.21842 29.7704 6.95773 29.7153C6.69704 29.6602 6.44999 29.5535 6.23109 29.4016C6.01219 29.2497 5.82585 29.0556 5.68302 28.8306C5.54018 28.6057 5.44374 28.3545 5.39934 28.0918C5.35494 27.829 5.36349 27.5601 5.42448 27.3007C5.48547 27.0413 5.59768 26.7968 5.7545 26.5814C6.90117 24.928 8.16517 23.3814 9.47184 22.0747C21.9145 9.63469 42.0852 9.63469 54.5278 22.0747V22.0774Z" fill="#0A459F"/>
</svg>
